<svg xmlns="http://www.w3.org/2000/svg" xmlns:xlink="http://www.w3.org/1999/xlink" width="150" zoomAndPan="magnify" viewBox="0 0 112.5 74.999997" height="100" preserveAspectRatio="xMidYMid meet" version="1.0"><defs><g/><clipPath id="8aca6cb441"><path d="M 26.257812 15.097656 L 80.765625 15.097656 L 80.765625 59.902344 L 26.257812 59.902344 Z M 26.257812 15.097656 " clip-rule="nonzero"/></clipPath></defs><g clip-path="url(#8aca6cb441)"><path fill="#cc0200" d="M 71.074219 15.089844 C 70.378906 15.09375 69.679688 15.152344 68.988281 15.273438 C 67.328125 15.5625 65.859375 16.144531 64.480469 16.550781 C 63.253906 16.917969 61.996094 17.175781 60.722656 17.351562 L 60.679688 17.078125 C 60.648438 16.832031 60.453125 16.644531 60.210938 16.617188 C 60.207031 16.617188 60.203125 16.617188 60.199219 16.617188 C 60.15625 16.613281 60.113281 16.609375 60.070312 16.617188 C 59.4375 16.703125 58.800781 16.742188 58.160156 16.734375 C 56.441406 16.703125 54.722656 16.332031 52.96875 16.308594 C 51.804688 16.292969 50.628906 16.433594 49.519531 16.8125 C 48.480469 17.167969 47.519531 17.71875 46.632812 18.359375 C 46.4375 18.488281 46.308594 18.699219 46.28125 18.933594 C 46.273438 19.023438 46.28125 19.113281 46.300781 19.199219 L 46.515625 20.230469 L 45.765625 20.929688 C 46.320312 21.332031 46.835938 21.785156 47.296875 22.308594 C 47.597656 22.628906 47.902344 22.949219 48.203125 23.265625 C 48.476562 23.550781 48.765625 23.847656 49.042969 24.179688 L 49.042969 24.1875 C 49.210938 24.378906 49.363281 24.574219 49.5 24.785156 L 50.660156 23.707031 L 51.546875 24.25 C 51.527344 24.277344 51.5 24.300781 51.492188 24.335938 C 51.332031 24.941406 51.214844 25.5625 51.144531 26.191406 C 51.078125 26.78125 51.054688 27.402344 51.21875 28.003906 C 51.367188 28.558594 51.652344 29.027344 51.851562 29.507812 C 51.957031 29.769531 52.039062 30.035156 52.074219 30.304688 C 52.105469 30.570312 52.09375 30.84375 52.011719 31.09375 C 51.890625 31.464844 51.613281 31.789062 51.324219 32.117188 C 50.242188 33.328125 49.109375 34.488281 47.925781 35.601562 C 46.957031 34.851562 46.027344 34.050781 45.148438 33.203125 C 44.972656 33.035156 44.808594 32.855469 44.636719 32.683594 C 44.613281 32.738281 44.585938 32.792969 44.542969 32.839844 C 44.128906 33.28125 43.554688 33.488281 42.992188 33.476562 C 43.304688 33.804688 43.621094 34.132812 43.949219 34.449219 C 44.898438 35.363281 45.902344 36.222656 46.949219 37.027344 C 47.1875 37.222656 47.484375 37.328125 47.789062 37.328125 C 48.117188 37.328125 48.433594 37.207031 48.675781 36.988281 C 49.128906 36.609375 49.578125 36.222656 50.007812 35.816406 C 51.921875 34.011719 53.589844 31.964844 55.113281 29.832031 C 55.675781 29.042969 56.238281 28.210938 56.535156 27.253906 C 56.800781 26.425781 56.84375 25.53125 56.671875 24.675781 C 56.664062 24.644531 56.640625 24.625 56.625 24.597656 L 57.910156 23.664062 C 58.109375 23.535156 58.242188 23.320312 58.265625 23.082031 C 58.289062 22.890625 58.238281 22.691406 58.125 22.535156 L 57.53125 21.578125 C 58.425781 21.488281 59.320312 21.335938 60.191406 21.125 C 60.371094 21.078125 60.546875 21.03125 60.726562 20.980469 C 60.960938 20.929688 61.144531 20.730469 61.167969 20.488281 C 61.175781 20.429688 61.175781 20.367188 61.164062 20.308594 L 61.109375 19.960938 C 62.503906 19.765625 63.882812 19.480469 65.230469 19.078125 C 66.75 18.628906 68.125 18.097656 69.441406 17.871094 C 71.605469 17.496094 73.921875 17.871094 75.859375 18.910156 C 76.421875 19.210938 77.117188 19 77.421875 18.4375 C 77.421875 18.4375 77.421875 18.433594 77.425781 18.433594 L 77.578125 18.144531 C 77.878906 17.585938 77.664062 16.886719 77.105469 16.585938 C 75.253906 15.59375 73.167969 15.082031 71.074219 15.089844 Z M 34.960938 17.003906 C 34.621094 16.96875 34.277344 17.132812 34.101562 17.453125 L 30.625 23.714844 C 30.390625 24.136719 30.542969 24.667969 30.96875 24.902344 L 33.003906 26.035156 C 33.425781 26.269531 33.957031 26.117188 34.191406 25.691406 L 37.667969 19.429688 C 37.902344 19.007812 37.75 18.476562 37.328125 18.242188 L 35.292969 17.109375 C 35.1875 17.050781 35.074219 17.015625 34.960938 17.003906 Z M 38.332031 19.605469 C 38.300781 19.71875 38.253906 19.828125 38.195312 19.933594 L 34.636719 26.347656 C 34.628906 26.363281 34.617188 26.375 34.609375 26.390625 C 35.234375 26.8125 35.789062 27.339844 36.316406 27.890625 C 37.023438 28.625 37.691406 29.40625 38.398438 30.152344 C 38.394531 30.15625 38.394531 30.160156 38.390625 30.164062 C 38.457031 30.234375 38.535156 30.296875 38.601562 30.363281 C 38.960938 30.734375 39.332031 31.09375 39.730469 31.421875 C 39.871094 31.539062 40.015625 31.648438 40.167969 31.757812 C 40.246094 31.816406 40.328125 31.875 40.410156 31.929688 C 40.417969 31.933594 40.425781 31.9375 40.429688 31.941406 C 40.578125 32.039062 40.734375 32.132812 40.890625 32.214844 C 40.921875 32.226562 40.949219 32.246094 40.976562 32.257812 C 40.996094 32.269531 41.015625 32.277344 41.035156 32.285156 C 41.046875 32.289062 41.0625 32.296875 41.070312 32.300781 C 41.289062 32.40625 41.511719 32.492188 41.742188 32.558594 C 42.121094 32.675781 42.511719 32.746094 42.910156 32.769531 C 43.3125 32.808594 43.730469 32.667969 44.023438 32.351562 C 44.261719 32.101562 44.371094 31.777344 44.375 31.453125 C 44.914062 31.832031 45.660156 31.789062 46.125 31.296875 C 46.40625 30.992188 46.503906 30.59375 46.457031 30.207031 C 46.929688 30.34375 47.460938 30.234375 47.816406 29.851562 C 48.136719 29.511719 48.222656 29.046875 48.121094 28.621094 C 48.554688 28.691406 49.011719 28.582031 49.328125 28.238281 C 49.5625 27.992188 49.679688 27.683594 49.691406 27.367188 C 49.695312 27.261719 49.6875 27.15625 49.664062 27.050781 L 49.667969 27.050781 C 49.5 26.15625 49.097656 25.328125 48.5 24.644531 C 48.238281 24.335938 47.960938 24.042969 47.6875 23.753906 C 47.378906 23.425781 47.070312 23.101562 46.761719 22.773438 C 45.292969 21.113281 43.230469 20.082031 41.019531 19.894531 C 40.765625 19.875 40.515625 19.863281 40.261719 19.863281 C 40.167969 19.863281 40.066406 19.851562 39.972656 19.847656 C 39.417969 19.828125 38.867188 19.746094 38.332031 19.605469 Z M 76.523438 20.292969 C 76.316406 20.292969 76.09375 20.394531 75.976562 20.566406 C 75.328125 21.390625 74.738281 22.261719 74.222656 23.171875 C 73.960938 23.628906 73.714844 24.105469 73.539062 24.625 C 73.359375 25.144531 73.257812 25.707031 73.308594 26.277344 C 73.371094 26.949219 73.648438 27.585938 74.0625 28.105469 C 74.125 28.183594 74.191406 28.257812 74.257812 28.332031 C 74.832031 28.972656 75.664062 29.34375 76.523438 29.34375 C 77.382812 29.34375 78.210938 28.972656 78.785156 28.332031 C 78.851562 28.257812 78.917969 28.183594 78.980469 28.105469 C 79.394531 27.585938 79.671875 26.949219 79.734375 26.277344 C 79.785156 25.710938 79.683594 25.148438 79.507812 24.625 C 79.332031 24.109375 79.082031 23.628906 78.820312 23.171875 C 78.304688 22.261719 77.714844 21.390625 77.066406 20.566406 C 76.949219 20.394531 76.734375 20.292969 76.523438 20.292969 Z M 77.402344 22.339844 C 77.667969 22.738281 77.917969 23.140625 78.152344 23.550781 C 78.402344 23.992188 78.625 24.425781 78.777344 24.871094 C 78.925781 25.316406 79.007812 25.773438 78.964844 26.207031 C 78.917969 26.714844 78.703125 27.214844 78.375 27.625 C 78.332031 27.679688 78.28125 27.738281 78.222656 27.800781 C 78.21875 27.808594 78.210938 27.8125 78.207031 27.816406 C 77.980469 28.070312 77.695312 28.265625 77.382812 28.394531 C 77.378906 28.398438 77.371094 28.398438 77.367188 28.402344 L 77.363281 28.402344 C 77.3125 28.425781 77.253906 28.433594 77.199219 28.433594 C 76.96875 28.433594 76.777344 28.246094 76.777344 28.011719 C 76.777344 28 76.777344 27.988281 76.777344 27.976562 C 76.777344 27.972656 76.777344 27.96875 76.777344 27.964844 C 76.785156 27.824219 76.832031 27.679688 76.902344 27.546875 C 76.976562 27.414062 77.070312 27.289062 77.171875 27.167969 C 77.398438 26.894531 77.664062 26.625 77.832031 26.28125 C 78.003906 25.933594 78.054688 25.542969 78.039062 25.164062 C 78.023438 24.789062 77.945312 24.421875 77.867188 24.0625 C 77.746094 23.527344 77.625 22.988281 77.445312 22.464844 C 77.4375 22.421875 77.417969 22.382812 77.402344 22.339844 Z M 57.253906 27.289062 C 57.238281 27.347656 57.230469 27.40625 57.210938 27.464844 C 57.027344 28.050781 56.761719 28.570312 56.46875 29.0625 C 59.375 29.160156 62.253906 29.394531 65.011719 29.757812 C 65.027344 29.757812 65.039062 29.757812 65.050781 29.757812 C 66.132812 29.847656 67.144531 30.375 67.839844 31.214844 C 67.847656 31.226562 67.859375 31.234375 67.867188 31.246094 C 68.070312 31.464844 68.273438 31.6875 68.472656 31.910156 C 70.011719 33.644531 71.34375 35.554688 72.492188 37.574219 C 66.988281 38.679688 60.390625 39.277344 53.613281 39.277344 C 46.839844 39.277344 40.242188 38.679688 34.738281 37.574219 C 35.417969 36.378906 36.167969 35.226562 36.980469 34.125 L 36.039062 33.113281 C 35.046875 34.5 34.164062 35.957031 33.382812 37.472656 L 31.6875 36.933594 C 31.53125 36.875 31.441406 36.710938 31.484375 36.546875 C 31.625 36.019531 31.6875 35.464844 31.660156 34.917969 C 31.65625 34.84375 31.648438 34.765625 31.640625 34.691406 C 31.636719 34.488281 31.5 34.308594 31.304688 34.25 C 31.273438 34.238281 31.222656 34.222656 31.191406 34.210938 C 30.980469 34.140625 30.765625 34.078125 30.550781 34.019531 C 29.789062 33.800781 29 33.632812 28.214844 33.726562 C 27.8125 33.773438 27.417969 33.890625 27.0625 34.09375 C 27.039062 34.105469 27.019531 34.121094 26.996094 34.136719 C 26.792969 34.25 26.652344 34.4375 26.582031 34.65625 C 26.550781 34.753906 26.53125 34.859375 26.535156 34.960938 C 26.527344 35.28125 26.566406 35.605469 26.714844 35.886719 C 26.8125 36.070312 26.953125 36.230469 27.117188 36.363281 C 27.28125 36.496094 27.460938 36.605469 27.648438 36.710938 C 28.261719 37.0625 28.917969 37.347656 29.589844 37.566406 C 29.601562 37.570312 29.644531 37.582031 29.660156 37.585938 L 31.46875 38.164062 C 30.574219 38.75 29.90625 39.664062 29.667969 40.765625 C 29.546875 41.21875 29.453125 41.675781 29.375 42.140625 C 29.144531 43.492188 29.027344 44.863281 28.980469 46.234375 C 28.898438 48.730469 29.046875 51.234375 29.425781 53.699219 C 29.492188 54.285156 29.78125 54.824219 30.234375 55.195312 C 30.675781 55.582031 31.144531 55.945312 31.683594 56.171875 C 32.128906 56.359375 32.613281 56.445312 33.09375 56.527344 C 35.933594 56.992188 38.808594 57.226562 41.683594 57.230469 L 65.542969 57.230469 C 68.421875 57.226562 71.296875 56.992188 74.132812 56.527344 C 74.613281 56.445312 75.097656 56.359375 75.542969 56.171875 C 76.082031 55.945312 76.554688 55.582031 76.992188 55.195312 C 77.445312 54.824219 77.734375 54.285156 77.800781 53.699219 C 78.179688 51.230469 78.332031 48.730469 78.246094 46.234375 C 78.199219 44.863281 78.082031 43.492188 77.851562 42.140625 C 77.773438 41.675781 77.679688 41.21875 77.5625 40.765625 C 77.324219 39.664062 76.652344 38.75 75.757812 38.164062 L 77.570312 37.585938 C 77.582031 37.582031 77.621094 37.570312 77.636719 37.566406 C 78.3125 37.347656 78.964844 37.0625 79.582031 36.710938 C 79.765625 36.605469 79.949219 36.496094 80.109375 36.363281 C 80.273438 36.230469 80.414062 36.070312 80.515625 35.886719 C 80.664062 35.605469 80.699219 35.28125 80.691406 34.960938 C 80.695312 34.859375 80.675781 34.753906 80.648438 34.65625 C 80.578125 34.4375 80.433594 34.25 80.234375 34.136719 C 80.210938 34.121094 80.1875 34.105469 80.164062 34.09375 C 79.8125 33.890625 79.417969 33.773438 79.011719 33.726562 C 78.226562 33.632812 77.4375 33.800781 76.675781 34.019531 C 76.460938 34.078125 76.25 34.140625 76.039062 34.210938 C 76.003906 34.222656 75.957031 34.238281 75.921875 34.25 C 75.730469 34.308594 75.59375 34.488281 75.585938 34.691406 C 75.578125 34.765625 75.574219 34.84375 75.570312 34.917969 C 75.542969 35.464844 75.601562 36.019531 75.746094 36.546875 C 75.785156 36.710938 75.695312 36.875 75.539062 36.933594 L 73.847656 37.472656 C 72.535156 34.902344 70.90625 32.492188 68.996094 30.332031 C 68.792969 30.101562 68.585938 29.878906 68.378906 29.65625 C 67.5625 28.675781 66.378906 28.054688 65.105469 27.953125 C 62.5625 27.617188 59.921875 27.398438 57.253906 27.289062 Z M 36.695312 29.367188 L 35.925781 30.082031 C 35.414062 30.558594 35.386719 31.367188 35.863281 31.878906 L 37.785156 33.949219 C 38.257812 34.460938 39.070312 34.488281 39.585938 34.011719 L 40.742188 32.933594 C 40.742188 32.933594 40.730469 32.929688 40.734375 32.929688 C 40.714844 32.921875 40.691406 32.90625 40.664062 32.894531 C 40.664062 32.894531 40.660156 32.894531 40.660156 32.894531 C 40.65625 32.890625 40.621094 32.878906 40.558594 32.847656 C 40.378906 32.753906 40.203125 32.648438 40.035156 32.539062 C 40.03125 32.535156 40.023438 32.53125 40.015625 32.523438 C 40.011719 32.519531 40.007812 32.515625 40 32.511719 C 39.980469 32.496094 39.960938 32.476562 39.941406 32.460938 C 40.121094 32.632812 40.128906 32.613281 39.976562 32.5 C 39.898438 32.441406 39.820312 32.386719 39.746094 32.328125 C 39.742188 32.328125 39.738281 32.328125 39.734375 32.324219 L 39.734375 32.320312 C 39.582031 32.210938 39.425781 32.097656 39.277344 31.972656 C 38.292969 31.160156 37.488281 30.25 36.695312 29.367188 Z M 32.824219 42.390625 C 32.832031 42.390625 32.84375 42.390625 32.855469 42.390625 C 32.878906 42.390625 32.90625 42.390625 32.933594 42.398438 C 33.753906 42.589844 34.570312 42.816406 35.378906 43.070312 C 36.980469 43.578125 38.546875 44.207031 40.058594 44.941406 C 40.15625 44.992188 40.226562 45.082031 40.242188 45.191406 L 40.390625 46.125 C 40.414062 46.261719 40.347656 46.402344 40.222656 46.46875 L 36.648438 48.472656 C 36.589844 48.507812 36.519531 48.523438 36.453125 48.515625 L 33.113281 48.179688 C 32.960938 48.164062 32.835938 48.042969 32.816406 47.890625 C 32.648438 46.609375 32.546875 45.316406 32.523438 44.023438 C 32.511719 43.589844 32.515625 43.152344 32.523438 42.714844 C 32.527344 42.546875 32.65625 42.40625 32.824219 42.390625 Z M 74.347656 42.390625 C 74.359375 42.390625 74.367188 42.390625 74.375 42.390625 C 74.554688 42.390625 74.703125 42.535156 74.707031 42.71875 C 74.714844 43.152344 74.71875 43.589844 74.707031 44.027344 C 74.679688 45.320312 74.582031 46.609375 74.410156 47.890625 C 74.390625 48.046875 74.269531 48.167969 74.113281 48.183594 L 70.777344 48.515625 C 70.707031 48.523438 70.640625 48.507812 70.582031 48.476562 L 67.007812 46.46875 C 66.882812 46.402344 66.816406 46.265625 66.835938 46.125 L 66.988281 45.191406 C 67.003906 45.085938 67.070312 44.992188 67.167969 44.945312 C 68.679688 44.207031 70.246094 43.578125 71.851562 43.070312 C 72.65625 42.816406 73.472656 42.59375 74.296875 42.398438 C 74.3125 42.394531 74.332031 42.390625 74.347656 42.390625 Z M 43.988281 49.671875 L 49.761719 49.671875 C 49.886719 49.671875 49.984375 49.773438 49.984375 49.898438 L 49.984375 50.671875 C 49.984375 50.796875 49.886719 50.894531 49.761719 50.894531 L 43.988281 50.894531 C 43.863281 50.894531 43.761719 50.796875 43.761719 50.671875 L 43.761719 49.898438 C 43.761719 49.773438 43.863281 49.671875 43.988281 49.671875 Z M 57.46875 49.671875 L 63.242188 49.671875 C 63.367188 49.671875 63.46875 49.773438 63.46875 49.898438 L 63.46875 50.671875 C 63.46875 50.796875 63.367188 50.894531 63.242188 50.894531 L 57.46875 50.894531 C 57.34375 50.894531 57.246094 50.796875 57.246094 50.671875 L 57.246094 49.898438 C 57.246094 49.773438 57.34375 49.671875 57.46875 49.671875 Z M 29.007812 55.140625 L 29.007812 58.65625 C 29.007812 59.347656 29.570312 59.910156 30.265625 59.910156 L 37.972656 59.910156 C 38.667969 59.910156 39.226562 59.351562 39.226562 58.65625 L 39.226562 58.066406 C 37.125 57.96875 35.027344 57.746094 32.953125 57.40625 C 32.460938 57.328125 31.90625 57.234375 31.339844 57 C 30.65625 56.710938 30.113281 56.28125 29.644531 55.863281 C 29.394531 55.65625 29.179688 55.410156 29.007812 55.140625 Z M 78.222656 55.140625 C 78.042969 55.421875 77.820312 55.675781 77.554688 55.890625 C 77.09375 56.296875 76.558594 56.714844 75.890625 56.996094 C 75.324219 57.230469 74.769531 57.324219 74.277344 57.40625 C 72.199219 57.746094 70.105469 57.964844 68.003906 58.0625 L 68.003906 58.652344 C 68.003906 59.347656 68.5625 59.910156 69.257812 59.910156 L 76.964844 59.910156 C 77.65625 59.910156 78.21875 59.347656 78.21875 58.652344 L 78.21875 55.140625 Z M 78.222656 55.140625 " fill-opacity="1" fill-rule="nonzero"/></g><g fill="#cc0200" fill-opacity="1"><g transform="translate(54.892749, 43.79817)"><g><path d="M 0.890625 0.046875 C 0.671875 0.046875 0.503906 -0.0078125 0.390625 -0.125 C 0.273438 -0.238281 0.21875 -0.394531 0.21875 -0.59375 C 0.21875 -0.71875 0.242188 -0.820312 0.296875 -0.90625 C 0.347656 -1 0.425781 -1.070312 0.53125 -1.125 C 0.644531 -1.1875 0.789062 -1.234375 0.96875 -1.265625 C 1.125 -1.285156 1.238281 -1.3125 1.3125 -1.34375 C 1.394531 -1.375 1.453125 -1.410156 1.484375 -1.453125 C 1.515625 -1.492188 1.53125 -1.546875 1.53125 -1.609375 C 1.53125 -1.703125 1.492188 -1.773438 1.421875 -1.828125 C 1.359375 -1.878906 1.253906 -1.90625 1.109375 -1.90625 C 0.960938 -1.90625 0.835938 -1.878906 0.734375 -1.828125 C 0.640625 -1.773438 0.550781 -1.695312 0.46875 -1.59375 L 0.4375 -1.59375 L 0.28125 -1.8125 C 0.375 -1.925781 0.488281 -2.015625 0.625 -2.078125 C 0.769531 -2.148438 0.929688 -2.1875 1.109375 -2.1875 C 1.359375 -2.1875 1.539062 -2.128906 1.65625 -2.015625 C 1.78125 -1.910156 1.84375 -1.757812 1.84375 -1.5625 L 1.84375 -0.421875 C 1.84375 -0.304688 1.894531 -0.25 2 -0.25 C 2.03125 -0.25 2.0625 -0.253906 2.09375 -0.265625 L 2.125 -0.25 L 2.15625 -0.03125 C 2.132812 -0.0195312 2.101562 -0.0078125 2.0625 0 C 2.019531 0.0078125 1.984375 0.015625 1.953125 0.015625 C 1.828125 0.015625 1.734375 -0.0078125 1.671875 -0.0625 C 1.617188 -0.113281 1.582031 -0.191406 1.5625 -0.296875 L 1.515625 -0.296875 C 1.460938 -0.179688 1.382812 -0.09375 1.28125 -0.03125 C 1.175781 0.0195312 1.046875 0.046875 0.890625 0.046875 Z M 0.953125 -0.21875 C 1.078125 -0.21875 1.179688 -0.242188 1.265625 -0.296875 C 1.347656 -0.347656 1.410156 -0.421875 1.453125 -0.515625 C 1.503906 -0.617188 1.53125 -0.738281 1.53125 -0.875 L 1.53125 -1.140625 L 1.5 -1.15625 C 1.445312 -1.125 1.382812 -1.09375 1.3125 -1.0625 C 1.25 -1.039062 1.15625 -1.019531 1.03125 -1 C 0.90625 -0.988281 0.804688 -0.960938 0.734375 -0.921875 C 0.660156 -0.890625 0.609375 -0.847656 0.578125 -0.796875 C 0.546875 -0.742188 0.53125 -0.675781 0.53125 -0.59375 C 0.53125 -0.46875 0.566406 -0.375 0.640625 -0.3125 C 0.722656 -0.25 0.828125 -0.21875 0.953125 -0.21875 Z M 0.953125 -0.21875 "/></g></g></g></svg>