<svg xmlns="http://www.w3.org/2000/svg" xmlns:xlink="http://www.w3.org/1999/xlink" width="150" zoomAndPan="magnify" viewBox="0 0 112.5 74.999997" height="100" preserveAspectRatio="xMidYMid meet" version="1.0"><defs><g/><clipPath id="77a8802a0c"><path d="M 7.46875 17 L 104.535156 17 L 104.535156 58.707031 L 7.46875 58.707031 Z M 7.46875 17 " clip-rule="nonzero"/></clipPath><clipPath id="fe53d0d8ba"><path d="M 7.46875 17 L 104.535156 17 L 104.535156 51 L 7.46875 51 Z M 7.46875 17 " clip-rule="nonzero"/></clipPath><clipPath id="ba2875736c"><path d="M 33 32 L 104.535156 32 L 104.535156 39 L 33 39 Z M 33 32 " clip-rule="nonzero"/></clipPath><clipPath id="2093a75656"><path d="M 7.46875 20 L 99 20 L 99 51 L 7.46875 51 Z M 7.46875 20 " clip-rule="nonzero"/></clipPath><clipPath id="eef5e6aa96"><path d="M 7.46875 17 L 104.535156 17 L 104.535156 58.707031 L 7.46875 58.707031 Z M 7.46875 17 " clip-rule="nonzero"/></clipPath></defs><g clip-path="url(#77a8802a0c)"><path fill="#000000" d="M 104.429688 32.757812 C 104.339844 32.378906 104.171875 32.027344 103.929688 31.71875 L 98.117188 24.324219 C 96.851562 22.71875 95.070312 21.597656 93.074219 21.160156 C 85.863281 19.582031 67.351562 16.136719 49.804688 17.890625 C 48.871094 17.984375 47.964844 18.230469 47.117188 18.609375 C 46.988281 18.664062 46.863281 18.722656 46.738281 18.785156 C 46.355469 18.980469 45.988281 19.199219 45.632812 19.445312 C 45.632812 19.445312 45.617188 19.457031 45.589844 19.476562 C 45.574219 19.488281 45.558594 19.5 45.535156 19.515625 C 45.496094 19.542969 45.445312 19.578125 45.386719 19.621094 C 45.371094 19.628906 45.359375 19.640625 45.34375 19.648438 C 45.316406 19.667969 45.292969 19.6875 45.265625 19.707031 C 45.226562 19.730469 45.1875 19.757812 45.148438 19.789062 C 45.113281 19.8125 45.074219 19.835938 45.039062 19.863281 L 44.6875 20.109375 C 44.65625 20.132812 44.621094 20.15625 44.585938 20.183594 C 44.523438 20.222656 44.460938 20.269531 44.398438 20.3125 C 44.367188 20.335938 44.335938 20.355469 44.304688 20.378906 L 43.179688 21.167969 C 43.167969 21.175781 43.160156 21.179688 43.152344 21.1875 C 43.046875 21.261719 42.933594 21.339844 42.820312 21.417969 C 42.71875 21.492188 42.613281 21.566406 42.503906 21.640625 C 42.40625 21.710938 42.304688 21.78125 42.207031 21.851562 C 41.582031 22.289062 40.910156 22.757812 40.230469 23.234375 C 40.203125 23.257812 40.171875 23.277344 40.140625 23.300781 C 39.871094 23.488281 39.601562 23.675781 39.332031 23.867188 C 39.289062 23.898438 39.246094 23.929688 39.199219 23.960938 C 38.550781 24.414062 37.90625 24.867188 37.300781 25.292969 C 37.277344 25.308594 37.253906 25.324219 37.234375 25.339844 C 36.25 26.027344 35.367188 26.648438 34.710938 27.105469 L 33.566406 27.910156 L 33.273438 28.117188 L 13.320312 30.425781 C 12.578125 30.511719 11.898438 30.898438 11.445312 31.496094 L 9.667969 33.835938 L 8.023438 36.003906 C 7.871094 36.203125 7.75 36.425781 7.660156 36.660156 C 7.554688 36.945312 7.5 37.25 7.5 37.558594 L 7.5 47.566406 C 7.5 48.054688 7.628906 48.53125 7.878906 48.953125 L 9.0625 50.964844 C 9.410156 51.546875 10.035156 51.90625 10.714844 51.90625 L 10.777344 51.90625 C 11.035156 53.457031 11.652344 54.894531 12.578125 56.070312 C 13.429688 57.152344 14.507812 57.953125 15.695312 58.40625 C 16.433594 58.6875 17.210938 58.835938 18.003906 58.835938 L 22.332031 58.835938 C 22.769531 58.835938 23.199219 58.792969 23.625 58.703125 C 25.207031 58.378906 26.671875 57.457031 27.761719 56.070312 C 28.6875 54.894531 29.300781 53.457031 29.558594 51.90625 L 30.34375 51.90625 C 30.542969 51.90625 30.726562 51.859375 30.898438 51.777344 C 31.140625 53.375 31.765625 54.863281 32.714844 56.070312 C 33.566406 57.152344 34.644531 57.953125 35.832031 58.40625 C 36.570312 58.6875 37.351562 58.835938 38.144531 58.835938 L 42.472656 58.835938 C 42.90625 58.835938 43.339844 58.792969 43.761719 58.703125 C 45.34375 58.378906 46.808594 57.457031 47.902344 56.070312 C 49.148438 54.484375 49.835938 52.417969 49.835938 50.246094 C 49.835938 50.246094 49.835938 50.242188 49.835938 50.242188 L 49.851562 50.242188 C 49.851562 50.242188 49.851562 50.246094 49.851562 50.246094 C 49.851562 50.5 49.84375 50.757812 49.835938 51.019531 C 49.816406 51.679688 50.339844 52.230469 51.003906 52.230469 L 61.710938 52.230469 C 61.996094 53.65625 62.589844 54.976562 63.449219 56.070312 C 64.300781 57.152344 65.378906 57.953125 66.566406 58.40625 C 67.304688 58.6875 68.085938 58.835938 68.878906 58.835938 L 73.207031 58.835938 C 73.640625 58.835938 74.074219 58.792969 74.496094 58.703125 C 76.078125 58.378906 77.542969 57.457031 78.636719 56.070312 C 79.496094 54.976562 80.089844 53.65625 80.375 52.230469 L 81.847656 52.230469 C 82.132812 53.65625 82.726562 54.976562 83.585938 56.070312 C 84.4375 57.152344 85.519531 57.953125 86.703125 58.40625 C 87.441406 58.6875 88.222656 58.835938 89.015625 58.835938 L 93.34375 58.835938 C 93.78125 58.835938 94.210938 58.792969 94.632812 58.703125 C 96.21875 58.378906 97.679688 57.457031 98.773438 56.070312 C 100.019531 54.484375 100.707031 52.417969 100.707031 50.246094 C 100.707031 49.949219 100.695312 49.652344 100.667969 49.359375 C 100.734375 49.335938 100.796875 49.308594 100.855469 49.265625 L 103.304688 47.632812 C 103.878906 47.25 104.277344 46.667969 104.429688 46.011719 C 104.476562 45.8125 104.503906 45.605469 104.503906 45.394531 L 104.503906 33.382812 C 104.503906 33.171875 104.476562 32.960938 104.429688 32.757812 Z M 104.429688 32.757812 " fill-opacity="1" fill-rule="nonzero"/></g><g clip-path="url(#fe53d0d8ba)"><path fill="#cc0200" d="M 102.980469 38.113281 L 102.980469 33.226562 C 102.980469 32.96875 103.191406 32.757812 103.449219 32.757812 L 104.429688 32.757812 C 104.339844 32.378906 104.171875 32.027344 103.929688 31.71875 L 98.117188 24.324219 C 96.851562 22.71875 95.070312 21.597656 93.074219 21.160156 C 85.863281 19.582031 67.351562 16.136719 49.804688 17.890625 C 48.871094 17.984375 47.964844 18.230469 47.117188 18.609375 C 46.988281 18.664062 46.863281 18.722656 46.738281 18.785156 C 46.972656 18.667969 47.230469 18.609375 47.492188 18.617188 C 50.695312 18.679688 58.949219 18.988281 61.71875 19.09375 C 62.09375 19.105469 62.289062 19.546875 62.042969 19.832031 L 54.144531 29.179688 C 53.894531 29.472656 53.511719 29.605469 53.132812 29.53125 C 45.148438 27.957031 38.171875 27.828125 34.960938 27.875 C 34.546875 27.878906 34.371094 27.34375 34.714844 27.105469 L 33.566406 27.910156 L 33.273438 28.117188 L 13.320312 30.425781 C 12.578125 30.511719 11.898438 30.898438 11.445312 31.496094 L 9.667969 33.835938 L 36.132812 33.835938 C 36.554688 33.835938 36.800781 34.3125 36.550781 34.65625 L 34.972656 36.851562 C 34.726562 37.195312 34.328125 37.398438 33.90625 37.398438 L 27.6875 37.398438 C 27.613281 37.398438 27.539062 37.394531 27.464844 37.386719 C 27.335938 37.375 27.214844 37.355469 27.09375 37.324219 C 26.9375 37.285156 26.785156 37.230469 26.640625 37.164062 C 26.285156 36.996094 25.96875 36.746094 25.722656 36.425781 L 23.757812 33.835938 L 21.5 36.660156 L 7.660156 36.660156 C 7.554688 36.945312 7.5 37.25 7.5 37.558594 L 7.5 41.832031 L 15.78125 41.832031 C 16.296875 41.832031 16.777344 42.101562 17.050781 42.539062 L 19.875 47.09375 C 20.140625 47.523438 20.605469 47.785156 21.113281 47.785156 L 32.3125 47.785156 C 33.402344 44 35.828125 38.917969 41.019531 38.488281 C 46.953125 38 49.925781 42.140625 49.851562 50.242188 C 49.851562 50.242188 49.851562 50.246094 49.851562 50.246094 L 84.6875 50.246094 C 84.6875 50.15625 84.761719 50.082031 84.851562 50.082031 L 84.878906 50.082031 C 84.882812 50.082031 84.882812 50.082031 84.882812 50.082031 C 85.550781 46.519531 87.632812 39.78125 93.808594 39.78125 C 97.914062 39.78125 99.078125 43.070312 99.367188 46.011719 L 104.429688 46.011719 C 104.476562 45.8125 104.503906 45.605469 104.503906 45.394531 L 104.503906 38.582031 L 103.449219 38.582031 C 103.191406 38.582031 102.980469 38.371094 102.980469 38.113281 Z M 102.066406 33.824219 C 102.066406 33.917969 101.992188 33.992188 101.898438 33.992188 L 93.667969 33.992188 C 93.578125 33.992188 93.503906 33.917969 93.503906 33.824219 C 93.503906 33.734375 93.578125 33.660156 93.667969 33.660156 L 101.898438 33.660156 C 101.992188 33.660156 102.066406 33.734375 102.066406 33.824219 Z M 84.480469 42.449219 L 75.839844 42.449219 C 75.75 42.449219 75.675781 42.378906 75.675781 42.285156 C 75.675781 42.195312 75.75 42.121094 75.839844 42.121094 L 84.480469 42.121094 C 84.570312 42.121094 84.644531 42.195312 84.644531 42.285156 C 84.644531 42.375 84.570312 42.449219 84.480469 42.449219 Z M 72.59375 42.285156 C 72.59375 42.378906 72.519531 42.449219 72.429688 42.449219 L 56.140625 42.449219 C 56.050781 42.449219 55.976562 42.378906 55.976562 42.285156 C 55.976562 42.195312 56.050781 42.121094 56.140625 42.121094 L 72.429688 42.121094 C 72.519531 42.121094 72.59375 42.195312 72.59375 42.285156 Z M 75.152344 31.652344 C 75.152344 31.558594 75.226562 31.484375 75.320312 31.484375 C 75.410156 31.484375 75.484375 31.558594 75.484375 31.652344 L 75.484375 49.324219 C 75.484375 49.414062 75.410156 49.488281 75.320312 49.488281 C 75.226562 49.488281 75.152344 49.414062 75.152344 49.324219 Z M 89.996094 29.929688 L 76.386719 29.929688 C 76.152344 29.929688 75.960938 29.738281 75.960938 29.503906 L 75.960938 21.109375 C 75.960938 20.855469 76.183594 20.65625 76.4375 20.6875 L 87.066406 22 C 87.308594 22.027344 87.519531 22.191406 87.613281 22.417969 L 90.390625 29.34375 C 90.5 29.625 90.296875 29.929688 89.996094 29.929688 Z M 90.808594 31.945312 C 90.898438 31.945312 90.972656 32.019531 90.972656 32.113281 C 90.972656 32.203125 90.898438 32.277344 90.808594 32.277344 L 86.71875 32.277344 C 86.625 32.277344 86.550781 32.203125 86.550781 32.113281 C 86.550781 32.019531 86.625 31.945312 86.71875 31.945312 Z M 90.808594 33.660156 C 90.898438 33.660156 90.972656 33.734375 90.972656 33.824219 C 90.972656 33.917969 90.898438 33.992188 90.808594 33.992188 L 75.839844 33.992188 C 75.75 33.992188 75.675781 33.917969 75.675781 33.824219 C 75.675781 33.734375 75.75 33.660156 75.839844 33.660156 Z M 92.398438 31.652344 C 92.398438 31.558594 92.472656 31.484375 92.5625 31.484375 C 92.652344 31.484375 92.726562 31.558594 92.726562 31.652344 L 92.726562 37 C 92.726562 37.089844 92.652344 37.164062 92.5625 37.164062 C 92.472656 37.164062 92.398438 37.089844 92.398438 37 Z M 95.320312 23.277344 L 100.277344 29.566406 C 100.449219 29.789062 100.292969 30.113281 100.011719 30.113281 L 92.816406 30.113281 C 92.675781 30.113281 92.550781 30.03125 92.5 29.902344 L 89.730469 22.996094 C 89.632812 22.753906 89.828125 22.5 90.085938 22.53125 L 95.097656 23.152344 C 95.1875 23.164062 95.265625 23.207031 95.320312 23.277344 Z M 58.960938 18.082031 C 58.867188 18.074219 58.800781 17.996094 58.804688 17.90625 C 58.808594 17.816406 58.890625 17.746094 58.976562 17.75 C 59.214844 17.765625 82.882812 19.105469 95.066406 22.257812 C 95.15625 22.277344 95.210938 22.367188 95.1875 22.457031 C 95.167969 22.53125 95.101562 22.582031 95.027344 22.582031 C 95.011719 22.582031 95 22.578125 94.984375 22.574219 C 82.832031 19.433594 59.195312 18.09375 58.960938 18.082031 Z M 74.46875 32.113281 C 74.46875 32.203125 74.394531 32.277344 74.304688 32.277344 L 69.171875 32.277344 C 69.082031 32.277344 69.007812 32.203125 69.007812 32.113281 C 69.007812 32.019531 69.082031 31.949219 69.171875 31.949219 L 74.304688 31.949219 C 74.394531 31.945312 74.46875 32.019531 74.46875 32.113281 Z M 55.78125 29.410156 L 63.726562 20.011719 C 64.152344 19.507812 64.804688 19.25 65.457031 19.332031 L 73.53125 20.328125 C 73.976562 20.382812 74.308594 20.761719 74.308594 21.210938 L 74.308594 29.46875 C 74.308594 29.722656 74.105469 29.929688 73.851562 29.929688 L 58.433594 29.929688 L 58.785156 29.1875 L 62.03125 29.210938 C 62.175781 29.214844 62.304688 29.128906 62.359375 28.996094 L 63.027344 27.367188 C 63.121094 27.140625 62.953125 26.886719 62.703125 26.886719 L 59.058594 26.855469 C 58.914062 26.855469 58.785156 26.941406 58.730469 27.074219 L 58.285156 28.164062 L 56.519531 29.929688 L 56.019531 29.929688 C 55.753906 29.929688 55.605469 29.613281 55.78125 29.410156 Z M 58.847656 30.308594 C 58.847656 30.402344 58.773438 30.476562 58.679688 30.476562 L 56.207031 30.476562 C 56.117188 30.476562 56.042969 30.402344 56.042969 30.308594 C 56.042969 30.21875 56.117188 30.144531 56.207031 30.144531 L 58.679688 30.144531 C 58.773438 30.144531 58.847656 30.21875 58.847656 30.308594 Z M 55.523438 33.660156 L 74.304688 33.660156 C 74.394531 33.660156 74.46875 33.734375 74.46875 33.824219 C 74.46875 33.917969 74.394531 33.992188 74.304688 33.992188 L 55.523438 33.992188 C 55.433594 33.992188 55.359375 33.917969 55.359375 33.824219 C 55.359375 33.734375 55.433594 33.660156 55.523438 33.660156 Z M 53.679688 33.660156 C 53.773438 33.660156 53.84375 33.734375 53.84375 33.824219 C 53.84375 33.917969 53.773438 33.992188 53.679688 33.992188 L 37.207031 33.992188 C 37.113281 33.992188 37.042969 33.917969 37.042969 33.824219 C 37.042969 33.734375 37.113281 33.660156 37.207031 33.660156 Z M 33.503906 28.351562 C 34.101562 28.351562 48.175781 28.40625 53.066406 30.421875 C 53.152344 30.457031 53.191406 30.554688 53.15625 30.636719 C 53.128906 30.703125 53.070312 30.738281 53.003906 30.738281 C 52.984375 30.738281 52.960938 30.734375 52.941406 30.726562 C 48.109375 28.734375 33.648438 28.679688 33.503906 28.679688 C 33.410156 28.679688 33.335938 28.605469 33.335938 28.515625 C 33.339844 28.425781 33.410156 28.351562 33.503906 28.351562 Z M 21.007812 32.921875 L 11.785156 32.921875 C 11.691406 32.921875 11.617188 32.847656 11.617188 32.757812 C 11.617188 32.667969 11.691406 32.59375 11.785156 32.59375 L 21.007812 32.59375 C 21.097656 32.59375 21.171875 32.667969 21.171875 32.757812 C 21.171875 32.847656 21.097656 32.921875 21.007812 32.921875 Z M 26.140625 31.414062 C 24.402344 31.738281 23.257812 32.863281 23.246094 32.875 C 23.214844 32.90625 23.171875 32.921875 23.128906 32.921875 C 23.085938 32.921875 23.042969 32.90625 23.011719 32.875 C 22.949219 32.808594 22.949219 32.707031 23.011719 32.640625 C 23.0625 32.59375 24.238281 31.433594 26.078125 31.089844 C 27.882812 30.753906 40.292969 29.71875 40.820312 29.671875 C 40.910156 29.664062 40.988281 29.734375 40.996094 29.824219 C 41.003906 29.914062 40.9375 29.996094 40.847656 30 C 40.71875 30.011719 27.925781 31.082031 26.140625 31.414062 Z M 54.746094 31.652344 C 54.746094 31.558594 54.820312 31.484375 54.910156 31.484375 C 55 31.484375 55.074219 31.558594 55.074219 31.652344 L 55.074219 49.324219 C 55.074219 49.414062 55 49.488281 54.910156 49.488281 C 54.820312 49.488281 54.746094 49.414062 54.746094 49.324219 Z M 7.851562 37.378906 L 18.953125 37.378906 C 19.042969 37.378906 19.117188 37.453125 19.117188 37.542969 C 19.117188 37.636719 19.042969 37.710938 18.953125 37.710938 L 7.851562 37.710938 C 7.761719 37.710938 7.6875 37.636719 7.6875 37.542969 C 7.6875 37.453125 7.761719 37.378906 7.851562 37.378906 Z M 7.851562 38.503906 L 17.871094 38.503906 C 17.964844 38.503906 18.039062 38.578125 18.039062 38.671875 C 18.039062 38.761719 17.964844 38.835938 17.871094 38.835938 L 7.851562 38.835938 C 7.761719 38.835938 7.6875 38.761719 7.6875 38.671875 C 7.6875 38.578125 7.761719 38.503906 7.851562 38.503906 Z M 7.851562 39.632812 L 16.792969 39.632812 C 16.882812 39.632812 16.957031 39.707031 16.957031 39.796875 C 16.957031 39.886719 16.882812 39.960938 16.792969 39.960938 L 7.851562 39.960938 C 7.761719 39.960938 7.6875 39.886719 7.6875 39.796875 C 7.6875 39.707031 7.761719 39.632812 7.851562 39.632812 Z M 15.714844 41.085938 L 7.851562 41.085938 C 7.761719 41.085938 7.6875 41.011719 7.6875 40.921875 C 7.6875 40.832031 7.761719 40.757812 7.851562 40.757812 L 15.714844 40.757812 C 15.804688 40.757812 15.878906 40.832031 15.878906 40.921875 C 15.878906 41.011719 15.804688 41.085938 15.714844 41.085938 Z M 27.746094 45.652344 C 27.660156 45.890625 27.433594 46.050781 27.179688 46.050781 L 23.402344 46.050781 C 23.15625 46.050781 22.929688 45.898438 22.839844 45.667969 L 21.671875 42.652344 C 21.519531 42.257812 21.808594 41.832031 22.234375 41.832031 L 28.265625 41.832031 C 28.683594 41.832031 28.972656 42.246094 28.832031 42.640625 Z M 41.6875 37.226562 C 37.65625 37.0625 34.703125 38.410156 32.90625 41.230469 C 31.566406 43.335938 31.410156 45.511719 31.40625 45.53125 C 31.402344 45.617188 31.328125 45.6875 31.242188 45.6875 C 31.238281 45.6875 31.238281 45.6875 31.234375 45.683594 C 31.140625 45.679688 31.074219 45.601562 31.078125 45.511719 C 31.085938 45.417969 31.242188 43.226562 32.628906 41.050781 C 33.910156 39.039062 36.527344 36.6875 41.699219 36.894531 C 41.792969 36.898438 41.863281 36.976562 41.859375 37.066406 C 41.855469 37.160156 41.777344 37.230469 41.6875 37.226562 Z M 47.398438 35.839844 C 47.398438 35.746094 47.472656 35.675781 47.5625 35.675781 L 53.679688 35.675781 C 53.773438 35.675781 53.84375 35.746094 53.84375 35.839844 C 53.84375 35.929688 53.773438 36.003906 53.679688 36.003906 L 47.5625 36.003906 C 47.472656 36.003906 47.398438 35.929688 47.398438 35.839844 Z M 100.746094 44.75 C 100.660156 44.773438 100.570312 44.71875 100.546875 44.628906 C 100.105469 42.851562 98.9375 38.121094 93.0625 38.363281 C 84.179688 38.726562 83.90625 48.125 83.90625 48.21875 C 83.90625 48.308594 83.832031 48.382812 83.742188 48.382812 C 83.648438 48.382812 83.578125 48.308594 83.578125 48.21875 C 83.578125 48.121094 83.832031 38.410156 93.046875 38.035156 C 99.1875 37.78125 100.410156 42.699219 100.867188 44.550781 C 100.890625 44.640625 100.835938 44.730469 100.746094 44.75 Z M 103.90625 41.269531 C 103.90625 41.363281 103.832031 41.4375 103.742188 41.4375 L 101.046875 41.4375 C 100.953125 41.4375 100.878906 41.363281 100.878906 41.269531 C 100.878906 41.179688 100.953125 41.105469 101.046875 41.105469 L 103.742188 41.105469 C 103.832031 41.105469 103.90625 41.179688 103.90625 41.269531 Z M 103.90625 41.269531 " fill-opacity="1" fill-rule="nonzero"/></g><g clip-path="url(#ba2875736c)"><path fill="#fe6539" d="M 33.503906 33.835938 L 36.132812 33.835938 C 36.554688 33.835938 36.800781 34.3125 36.550781 34.65625 L 34.972656 36.851562 C 34.726562 37.195312 34.328125 37.398438 33.90625 37.398438 L 33.503906 37.398438 Z M 104.429688 32.757812 L 103.449219 32.757812 C 103.191406 32.757812 102.980469 32.96875 102.980469 33.226562 L 102.980469 38.113281 C 102.980469 38.371094 103.191406 38.582031 103.449219 38.582031 L 104.503906 38.582031 L 104.503906 33.382812 C 104.503906 33.171875 104.476562 32.960938 104.429688 32.757812 Z M 104.429688 32.757812 " fill-opacity="1" fill-rule="nonzero"/></g><path fill="#efefef" d="M 47.007812 50.246094 C 47.007812 53.429688 44.976562 56.007812 42.46875 56.007812 C 39.964844 56.007812 37.933594 53.429688 37.933594 50.246094 C 37.933594 47.0625 39.964844 44.484375 42.46875 44.484375 C 44.976562 44.484375 47.007812 47.0625 47.007812 50.246094 Z M 93.34375 44.484375 C 90.839844 44.484375 88.808594 47.0625 88.808594 50.246094 C 88.808594 53.429688 90.839844 56.007812 93.34375 56.007812 C 95.847656 56.007812 97.878906 53.429688 97.878906 50.246094 C 97.878906 47.0625 95.847656 44.484375 93.34375 44.484375 Z M 26.640625 37.164062 C 26.785156 37.230469 26.9375 37.285156 27.09375 37.324219 C 27.214844 37.355469 27.335938 37.375 27.464844 37.386719 C 27.539062 37.390625 27.613281 37.398438 27.6875 37.398438 L 33.503906 37.398438 L 33.503906 33.835938 L 23.757812 33.835938 L 25.722656 36.425781 C 25.96875 36.746094 26.285156 36.996094 26.640625 37.164062 Z M 25.238281 42.363281 C 24.664062 42.363281 24.199219 43.070312 24.199219 43.941406 C 24.199219 44.8125 24.664062 45.519531 25.238281 45.519531 C 25.8125 45.519531 26.277344 44.8125 26.277344 43.941406 C 26.277344 43.070312 25.8125 42.363281 25.238281 42.363281 Z M 25.238281 42.363281 " fill-opacity="1" fill-rule="nonzero"/><g clip-path="url(#2093a75656)"><path fill="#cecccd" d="M 7.5 43.941406 L 7.5 41.832031 L 15.78125 41.832031 C 16.296875 41.832031 16.777344 42.101562 17.050781 42.539062 L 19.875 47.097656 C 20.140625 47.523438 20.605469 47.785156 21.113281 47.785156 L 32.308594 47.785156 C 32.042969 48.714844 31.855469 49.5625 31.726562 50.246094 L 20.484375 50.246094 C 19.734375 50.246094 19.039062 49.859375 18.644531 49.222656 L 18.140625 48.40625 L 15.808594 44.648438 C 15.539062 44.207031 15.058594 43.941406 14.542969 43.941406 Z M 48.832031 27.847656 C 50.203125 28.042969 51.625 28.277344 53.078125 28.558594 C 53.265625 28.597656 53.457031 28.53125 53.582031 28.382812 L 59.941406 20.863281 C 60 20.792969 59.914062 20.695312 59.835938 20.742188 L 48.800781 27.703125 C 48.738281 27.742188 48.757812 27.839844 48.832031 27.847656 Z M 43.140625 27.21875 C 43.496094 27.25 43.859375 27.277344 44.226562 27.3125 C 44.707031 27.355469 45.199219 27.40625 45.699219 27.457031 C 45.90625 27.480469 46.113281 27.441406 46.296875 27.347656 L 58.929688 20.78125 C 59.011719 20.738281 58.953125 20.613281 58.867188 20.648438 L 43.09375 26.894531 C 42.925781 26.960938 42.960938 27.207031 43.140625 27.21875 Z M 66.4375 28.988281 L 68.09375 28.988281 C 68.152344 28.988281 68.207031 28.964844 68.242188 28.921875 L 73.316406 23.207031 C 73.351562 23.171875 73.367188 23.125 73.367188 23.078125 L 73.367188 22.613281 C 73.367188 22.441406 73.164062 22.351562 73.035156 22.46875 L 66.300781 28.644531 C 66.167969 28.765625 66.253906 28.988281 66.4375 28.988281 Z M 73.09375 25.058594 L 70.332031 28.742188 C 70.257812 28.84375 70.332031 28.988281 70.457031 28.988281 L 73.214844 28.988281 C 73.300781 28.988281 73.367188 28.917969 73.367188 28.835938 L 73.367188 25.152344 C 73.367188 25.003906 73.183594 24.941406 73.09375 25.058594 Z M 87.207031 23.941406 L 86.847656 23.042969 C 86.824219 22.984375 86.742188 22.96875 86.695312 23.015625 L 81.160156 28.574219 C 81.011719 28.730469 81.121094 28.988281 81.335938 28.988281 L 81.839844 28.988281 C 81.902344 28.988281 81.960938 28.964844 82.003906 28.921875 L 87.144531 24.210938 C 87.21875 24.140625 87.242188 24.035156 87.207031 23.941406 Z M 87.730469 25.253906 C 87.664062 25.085938 87.445312 25.046875 87.324219 25.179688 L 84.304688 28.582031 C 84.164062 28.738281 84.277344 28.988281 84.484375 28.988281 L 85.621094 28.988281 C 85.695312 28.988281 85.769531 28.953125 85.816406 28.890625 L 87.933594 26.0625 C 87.984375 25.996094 87.996094 25.90625 87.960938 25.828125 Z M 94.230469 29.171875 L 95.15625 29.171875 C 95.222656 29.171875 95.285156 29.125 95.300781 29.058594 L 96.140625 25.941406 C 96.15625 25.894531 96.144531 25.84375 96.113281 25.808594 L 95.730469 25.320312 C 95.660156 25.230469 95.511719 25.25 95.46875 25.359375 L 94.089844 28.964844 C 94.050781 29.0625 94.125 29.171875 94.230469 29.171875 Z M 96.769531 29.171875 L 98.453125 29.171875 C 98.578125 29.171875 98.648438 29.023438 98.570312 28.925781 L 97.203125 27.1875 C 97.121094 27.085938 96.957031 27.125 96.933594 27.253906 L 96.617188 28.992188 C 96.601562 29.085938 96.671875 29.171875 96.769531 29.171875 Z M 8.128906 45.246094 L 15.015625 45.246094 C 15.105469 45.246094 15.179688 45.175781 15.179688 45.082031 C 15.179688 44.992188 15.105469 44.917969 15.015625 44.917969 L 8.128906 44.917969 C 8.039062 44.917969 7.964844 44.992188 7.964844 45.082031 C 7.964844 45.175781 8.039062 45.246094 8.128906 45.246094 Z M 8.128906 46.832031 L 15.015625 46.832031 C 15.105469 46.832031 15.179688 46.757812 15.179688 46.664062 C 15.179688 46.574219 15.105469 46.5 15.015625 46.5 L 8.128906 46.5 C 8.039062 46.5 7.964844 46.574219 7.964844 46.664062 C 7.964844 46.757812 8.039062 46.832031 8.128906 46.832031 Z M 15.015625 48.414062 C 15.105469 48.414062 15.179688 48.339844 15.179688 48.25 C 15.179688 48.15625 15.105469 48.082031 15.015625 48.082031 L 8.128906 48.082031 C 8.039062 48.082031 7.964844 48.15625 7.964844 48.25 C 7.964844 48.339844 8.039062 48.414062 8.128906 48.414062 Z M 15.015625 48.414062 " fill-opacity="1" fill-rule="nonzero"/></g><g clip-path="url(#eef5e6aa96)"><path fill="#000000" d="M 41.019531 38.488281 C 35.828125 38.917969 33.402344 44 32.3125 47.785156 L 32.308594 47.785156 C 32.042969 48.714844 31.855469 49.5625 31.726562 50.246094 L 20.484375 50.246094 C 19.734375 50.246094 19.039062 49.859375 18.644531 49.222656 L 18.140625 48.40625 L 15.808594 44.648438 C 15.539062 44.207031 15.058594 43.941406 14.542969 43.941406 L 7.5 43.941406 L 7.5 47.566406 C 7.5 48.054688 7.628906 48.53125 7.878906 48.953125 L 9.0625 50.964844 C 9.410156 51.546875 10.035156 51.90625 10.714844 51.90625 L 10.777344 51.90625 C 11.035156 53.457031 11.652344 54.898438 12.578125 56.070312 C 13.429688 57.152344 14.507812 57.953125 15.695312 58.40625 C 16.433594 58.6875 17.210938 58.835938 18.003906 58.835938 L 22.332031 58.835938 C 22.769531 58.835938 23.199219 58.792969 23.625 58.703125 C 25.207031 58.378906 26.671875 57.457031 27.761719 56.070312 C 28.6875 54.898438 29.300781 53.457031 29.558594 51.90625 L 30.34375 51.90625 C 30.542969 51.90625 30.726562 51.859375 30.898438 51.777344 C 31.140625 53.378906 31.765625 54.863281 32.714844 56.070312 C 33.566406 57.152344 34.644531 57.953125 35.832031 58.40625 C 36.570312 58.6875 37.351562 58.835938 38.144531 58.835938 L 42.472656 58.835938 C 42.90625 58.835938 43.339844 58.792969 43.761719 58.703125 C 45.34375 58.378906 46.808594 57.457031 47.902344 56.070312 C 49.148438 54.484375 49.835938 52.417969 49.835938 50.246094 C 49.835938 50.246094 49.835938 50.246094 49.835938 50.242188 L 49.851562 50.242188 C 49.925781 42.140625 46.953125 38 41.019531 38.488281 Z M 8.128906 44.917969 L 15.015625 44.917969 C 15.105469 44.917969 15.179688 44.992188 15.179688 45.082031 C 15.179688 45.175781 15.105469 45.246094 15.015625 45.246094 L 8.128906 45.246094 C 8.039062 45.246094 7.964844 45.175781 7.964844 45.082031 C 7.964844 44.992188 8.039062 44.917969 8.128906 44.917969 Z M 8.128906 46.5 L 15.015625 46.5 C 15.105469 46.5 15.179688 46.574219 15.179688 46.664062 C 15.179688 46.757812 15.105469 46.832031 15.015625 46.832031 L 8.128906 46.832031 C 8.039062 46.832031 7.964844 46.757812 7.964844 46.664062 C 7.964844 46.574219 8.039062 46.5 8.128906 46.5 Z M 8.128906 48.414062 C 8.039062 48.414062 7.964844 48.339844 7.964844 48.25 C 7.964844 48.15625 8.039062 48.082031 8.128906 48.082031 L 15.015625 48.082031 C 15.105469 48.082031 15.179688 48.15625 15.179688 48.25 C 15.179688 48.339844 15.105469 48.414062 15.015625 48.414062 Z M 47.007812 50.246094 C 47.007812 53.429688 44.976562 56.007812 42.46875 56.007812 C 39.964844 56.007812 37.933594 53.429688 37.933594 50.246094 C 37.933594 47.0625 39.964844 44.484375 42.46875 44.484375 C 44.976562 44.484375 47.007812 47.0625 47.007812 50.246094 Z M 27.09375 37.324219 C 27.214844 37.355469 27.335938 37.375 27.464844 37.386719 C 27.335938 37.375 27.214844 37.355469 27.09375 37.324219 Z M 21.5 36.660156 L 7.660156 36.660156 C 7.746094 36.425781 7.871094 36.203125 8.023438 36.003906 L 9.667969 33.835938 L 23.757812 33.835938 Z M 28.265625 41.832031 L 22.234375 41.832031 C 21.808594 41.832031 21.519531 42.257812 21.671875 42.652344 L 22.839844 45.667969 C 22.929688 45.898438 23.15625 46.050781 23.402344 46.050781 L 27.179688 46.050781 C 27.433594 46.050781 27.660156 45.890625 27.746094 45.652344 L 28.832031 42.640625 C 28.972656 42.246094 28.683594 41.832031 28.265625 41.832031 Z M 25.238281 45.519531 C 24.664062 45.519531 24.199219 44.8125 24.199219 43.941406 C 24.199219 43.070312 24.664062 42.363281 25.238281 42.363281 C 25.8125 42.363281 26.277344 43.070312 26.277344 43.941406 C 26.277344 44.8125 25.8125 45.519531 25.238281 45.519531 Z M 99.367188 46.011719 C 99.078125 43.070312 97.914062 39.78125 93.808594 39.78125 C 87.632812 39.78125 85.550781 46.519531 84.882812 50.082031 C 84.882812 50.082031 84.882812 50.082031 84.878906 50.082031 L 84.851562 50.082031 C 84.761719 50.082031 84.6875 50.15625 84.6875 50.246094 L 49.851562 50.246094 C 49.847656 50.5 49.84375 50.757812 49.835938 51.019531 C 49.8125 51.679688 50.339844 52.230469 51.003906 52.230469 L 61.710938 52.230469 C 61.996094 53.65625 62.589844 54.976562 63.449219 56.070312 C 64.300781 57.152344 65.378906 57.953125 66.566406 58.40625 C 67.304688 58.6875 68.085938 58.835938 68.878906 58.835938 L 73.207031 58.835938 C 73.640625 58.835938 74.074219 58.792969 74.496094 58.703125 C 76.078125 58.378906 77.542969 57.457031 78.632812 56.070312 C 79.496094 54.976562 80.089844 53.65625 80.375 52.230469 L 81.847656 52.230469 C 82.132812 53.65625 82.726562 54.976562 83.585938 56.070312 C 84.4375 57.152344 85.519531 57.953125 86.703125 58.40625 C 87.441406 58.6875 88.222656 58.835938 89.015625 58.835938 L 93.34375 58.835938 C 93.78125 58.835938 94.210938 58.792969 94.632812 58.703125 C 96.21875 58.378906 97.679688 57.457031 98.773438 56.070312 C 100.019531 54.484375 100.707031 52.417969 100.707031 50.246094 C 100.707031 49.949219 100.691406 49.652344 100.667969 49.359375 C 100.730469 49.335938 100.796875 49.304688 100.855469 49.265625 L 103.304688 47.632812 C 103.878906 47.25 104.277344 46.667969 104.429688 46.011719 Z M 93.34375 56.007812 C 90.839844 56.007812 88.808594 53.429688 88.808594 50.246094 C 88.808594 47.0625 90.839844 44.484375 93.34375 44.484375 C 95.847656 44.484375 97.878906 47.0625 97.878906 50.246094 C 97.878906 53.429688 95.847656 56.007812 93.34375 56.007812 Z M 34.960938 27.875 C 38.171875 27.828125 45.148438 27.957031 53.132812 29.53125 C 53.511719 29.605469 53.894531 29.472656 54.144531 29.179688 L 62.042969 19.832031 C 62.289062 19.546875 62.09375 19.105469 61.71875 19.09375 C 58.949219 18.988281 50.695312 18.683594 47.492188 18.617188 C 47.230469 18.609375 46.972656 18.667969 46.738281 18.785156 C 46.355469 18.980469 45.988281 19.199219 45.632812 19.445312 C 45.632812 19.445312 45.617188 19.457031 45.589844 19.476562 C 45.574219 19.488281 45.558594 19.5 45.535156 19.515625 C 45.496094 19.542969 45.445312 19.578125 45.386719 19.621094 C 45.371094 19.628906 45.359375 19.640625 45.34375 19.648438 C 45.316406 19.667969 45.292969 19.6875 45.261719 19.707031 C 45.226562 19.730469 45.1875 19.757812 45.148438 19.789062 C 45.113281 19.8125 45.074219 19.835938 45.039062 19.863281 C 44.933594 19.9375 44.816406 20.019531 44.6875 20.109375 C 44.65625 20.132812 44.621094 20.15625 44.585938 20.183594 C 44.523438 20.222656 44.460938 20.269531 44.398438 20.3125 C 44.367188 20.335938 44.335938 20.355469 44.304688 20.378906 C 43.972656 20.609375 43.59375 20.878906 43.179688 21.167969 C 43.167969 21.175781 43.160156 21.179688 43.152344 21.1875 C 43.042969 21.261719 42.933594 21.339844 42.820312 21.417969 C 42.71875 21.492188 42.613281 21.566406 42.503906 21.640625 C 42.40625 21.710938 42.304688 21.78125 42.207031 21.851562 C 41.582031 22.289062 40.910156 22.757812 40.230469 23.234375 C 40.203125 23.257812 40.171875 23.277344 40.140625 23.300781 C 39.871094 23.488281 39.601562 23.675781 39.332031 23.867188 C 39.289062 23.898438 39.246094 23.929688 39.199219 23.960938 C 38.550781 24.414062 37.90625 24.867188 37.300781 25.292969 C 37.277344 25.308594 37.253906 25.324219 37.234375 25.339844 C 36.25 26.027344 35.367188 26.648438 34.710938 27.105469 C 34.371094 27.34375 34.546875 27.878906 34.960938 27.875 Z M 59.941406 20.863281 L 53.582031 28.382812 C 53.457031 28.53125 53.265625 28.597656 53.078125 28.558594 C 51.625 28.277344 50.203125 28.042969 48.832031 27.847656 C 48.757812 27.839844 48.738281 27.742188 48.800781 27.703125 L 59.835938 20.742188 C 59.914062 20.695312 60 20.792969 59.941406 20.863281 Z M 43.09375 26.894531 L 58.867188 20.648438 C 58.953125 20.613281 59.011719 20.738281 58.929688 20.78125 L 46.296875 27.347656 C 46.113281 27.441406 45.90625 27.480469 45.699219 27.457031 C 45.199219 27.40625 44.707031 27.355469 44.226562 27.3125 C 43.859375 27.28125 43.496094 27.25 43.140625 27.21875 C 42.960938 27.207031 42.925781 26.960938 43.09375 26.894531 Z M 56.019531 29.929688 L 56.519531 29.929688 L 58.285156 28.164062 L 58.730469 27.074219 C 58.785156 26.941406 58.914062 26.855469 59.058594 26.855469 L 62.703125 26.886719 C 62.953125 26.886719 63.121094 27.140625 63.027344 27.367188 L 62.359375 28.996094 C 62.304688 29.128906 62.175781 29.214844 62.03125 29.210938 L 58.785156 29.1875 L 58.433594 29.929688 L 73.851562 29.929688 C 74.105469 29.929688 74.308594 29.722656 74.308594 29.46875 L 74.308594 21.210938 C 74.308594 20.761719 73.976562 20.382812 73.53125 20.328125 L 65.457031 19.332031 C 64.804688 19.25 64.152344 19.507812 63.726562 20.011719 L 55.78125 29.410156 C 55.605469 29.613281 55.753906 29.929688 56.019531 29.929688 Z M 73.367188 28.835938 C 73.367188 28.917969 73.300781 28.988281 73.214844 28.988281 L 70.457031 28.988281 C 70.332031 28.988281 70.257812 28.84375 70.332031 28.742188 L 73.09375 25.058594 C 73.183594 24.941406 73.367188 25.003906 73.367188 25.152344 Z M 66.300781 28.644531 L 73.035156 22.46875 C 73.164062 22.351562 73.367188 22.441406 73.367188 22.613281 L 73.367188 23.078125 C 73.367188 23.125 73.351562 23.171875 73.316406 23.207031 L 68.242188 28.921875 C 68.207031 28.964844 68.152344 28.988281 68.09375 28.988281 L 66.4375 28.988281 C 66.253906 28.988281 66.167969 28.765625 66.300781 28.644531 Z M 87.613281 22.417969 C 87.519531 22.191406 87.3125 22.027344 87.066406 22 L 76.4375 20.6875 C 76.183594 20.65625 75.960938 20.855469 75.960938 21.109375 L 75.960938 29.503906 C 75.960938 29.738281 76.152344 29.929688 76.386719 29.929688 L 89.996094 29.929688 C 90.296875 29.929688 90.503906 29.625 90.390625 29.34375 Z M 81.839844 28.988281 L 81.335938 28.988281 C 81.121094 28.988281 81.011719 28.730469 81.160156 28.574219 L 86.695312 23.015625 C 86.742188 22.96875 86.824219 22.984375 86.847656 23.042969 L 87.207031 23.941406 C 87.242188 24.035156 87.21875 24.140625 87.144531 24.210938 L 82.003906 28.921875 C 81.960938 28.964844 81.902344 28.988281 81.839844 28.988281 Z M 87.929688 26.0625 L 85.816406 28.890625 C 85.769531 28.953125 85.695312 28.988281 85.621094 28.988281 L 84.484375 28.988281 C 84.277344 28.988281 84.164062 28.738281 84.304688 28.582031 L 87.324219 25.179688 C 87.445312 25.046875 87.664062 25.085938 87.730469 25.253906 L 87.960938 25.828125 C 87.996094 25.90625 87.984375 25.996094 87.929688 26.0625 Z M 90.085938 22.53125 C 89.828125 22.5 89.632812 22.753906 89.730469 22.992188 L 92.5 29.902344 C 92.550781 30.03125 92.675781 30.113281 92.816406 30.113281 L 100.011719 30.113281 C 100.292969 30.113281 100.453125 29.789062 100.277344 29.566406 L 95.324219 23.277344 C 95.265625 23.207031 95.1875 23.164062 95.097656 23.152344 Z M 96.933594 27.253906 C 96.957031 27.125 97.121094 27.085938 97.203125 27.1875 L 98.570312 28.925781 C 98.648438 29.023438 98.578125 29.171875 98.453125 29.171875 L 96.769531 29.171875 C 96.671875 29.171875 96.601562 29.085938 96.617188 28.992188 Z M 95.46875 25.359375 C 95.511719 25.25 95.660156 25.226562 95.730469 25.320312 L 96.113281 25.808594 C 96.144531 25.84375 96.15625 25.894531 96.140625 25.941406 L 95.300781 29.058594 C 95.285156 29.125 95.222656 29.171875 95.15625 29.171875 L 94.230469 29.171875 C 94.125 29.171875 94.050781 29.0625 94.089844 28.964844 Z M 54.746094 49.324219 L 54.746094 31.652344 C 54.746094 31.558594 54.820312 31.484375 54.910156 31.484375 C 55 31.484375 55.074219 31.558594 55.074219 31.652344 L 55.074219 49.324219 C 55.074219 49.414062 55 49.488281 54.910156 49.488281 C 54.820312 49.488281 54.746094 49.414062 54.746094 49.324219 Z M 75.152344 49.324219 L 75.152344 31.652344 C 75.152344 31.558594 75.226562 31.484375 75.320312 31.484375 C 75.410156 31.484375 75.484375 31.558594 75.484375 31.652344 L 75.484375 49.324219 C 75.484375 49.414062 75.410156 49.488281 75.320312 49.488281 C 75.226562 49.488281 75.152344 49.414062 75.152344 49.324219 Z M 40.847656 30.003906 C 40.71875 30.011719 27.925781 31.082031 26.140625 31.414062 C 24.402344 31.738281 23.257812 32.863281 23.246094 32.875 C 23.214844 32.90625 23.171875 32.921875 23.128906 32.921875 C 23.085938 32.921875 23.042969 32.90625 23.011719 32.875 C 22.949219 32.808594 22.949219 32.707031 23.011719 32.640625 C 23.0625 32.59375 24.238281 31.433594 26.078125 31.089844 C 27.882812 30.753906 40.292969 29.71875 40.820312 29.671875 C 40.910156 29.664062 40.988281 29.734375 40.996094 29.824219 C 41.003906 29.914062 40.9375 29.996094 40.847656 30.003906 Z M 33.339844 28.515625 C 33.339844 28.425781 33.410156 28.351562 33.503906 28.351562 C 34.101562 28.351562 48.175781 28.40625 53.066406 30.421875 C 53.152344 30.457031 53.191406 30.554688 53.15625 30.636719 C 53.128906 30.703125 53.070312 30.738281 53.003906 30.738281 C 52.984375 30.738281 52.960938 30.734375 52.941406 30.726562 C 48.109375 28.734375 33.648438 28.679688 33.503906 28.679688 C 33.410156 28.679688 33.335938 28.605469 33.339844 28.515625 Z M 37.207031 33.660156 L 53.679688 33.660156 C 53.773438 33.660156 53.84375 33.734375 53.84375 33.824219 C 53.84375 33.917969 53.773438 33.992188 53.679688 33.992188 L 37.207031 33.992188 C 37.113281 33.992188 37.042969 33.917969 37.042969 33.824219 C 37.042969 33.734375 37.113281 33.660156 37.207031 33.660156 Z M 55.359375 33.824219 C 55.359375 33.734375 55.433594 33.660156 55.523438 33.660156 L 74.304688 33.660156 C 74.394531 33.660156 74.46875 33.734375 74.46875 33.824219 C 74.46875 33.917969 74.394531 33.992188 74.304688 33.992188 L 55.523438 33.992188 C 55.433594 33.992188 55.359375 33.917969 55.359375 33.824219 Z M 74.304688 31.945312 C 74.394531 31.945312 74.46875 32.019531 74.46875 32.113281 C 74.46875 32.203125 74.394531 32.277344 74.304688 32.277344 L 69.171875 32.277344 C 69.082031 32.277344 69.007812 32.203125 69.007812 32.113281 C 69.007812 32.019531 69.082031 31.945312 69.171875 31.945312 Z M 75.839844 33.660156 L 90.808594 33.660156 C 90.898438 33.660156 90.972656 33.734375 90.972656 33.824219 C 90.972656 33.917969 90.898438 33.992188 90.808594 33.992188 L 75.839844 33.992188 C 75.75 33.992188 75.675781 33.917969 75.675781 33.824219 C 75.675781 33.734375 75.75 33.660156 75.839844 33.660156 Z M 86.71875 31.945312 L 90.808594 31.945312 C 90.898438 31.945312 90.972656 32.019531 90.972656 32.113281 C 90.972656 32.203125 90.898438 32.277344 90.808594 32.277344 L 86.71875 32.277344 C 86.625 32.277344 86.550781 32.203125 86.550781 32.113281 C 86.550781 32.019531 86.625 31.945312 86.71875 31.945312 Z M 92.398438 37 L 92.398438 31.652344 C 92.398438 31.558594 92.472656 31.484375 92.5625 31.484375 C 92.652344 31.484375 92.726562 31.558594 92.726562 31.652344 L 92.726562 37 C 92.726562 37.089844 92.652344 37.164062 92.5625 37.164062 C 92.472656 37.164062 92.398438 37.089844 92.398438 37 Z M 93.667969 33.660156 L 101.898438 33.660156 C 101.992188 33.660156 102.066406 33.734375 102.066406 33.824219 C 102.066406 33.917969 101.992188 33.992188 101.898438 33.992188 L 93.667969 33.992188 C 93.578125 33.992188 93.503906 33.917969 93.503906 33.824219 C 93.503906 33.734375 93.578125 33.660156 93.667969 33.660156 Z M 72.429688 42.121094 C 72.519531 42.121094 72.59375 42.195312 72.59375 42.285156 C 72.59375 42.378906 72.519531 42.449219 72.429688 42.449219 L 56.140625 42.449219 C 56.050781 42.449219 55.976562 42.378906 55.976562 42.285156 C 55.976562 42.195312 56.050781 42.121094 56.140625 42.121094 Z M 84.644531 42.285156 C 84.644531 42.378906 84.570312 42.449219 84.480469 42.449219 L 75.839844 42.449219 C 75.75 42.449219 75.675781 42.378906 75.675781 42.285156 C 75.675781 42.195312 75.75 42.121094 75.839844 42.121094 L 84.480469 42.121094 C 84.570312 42.121094 84.644531 42.195312 84.644531 42.285156 Z M 100.867188 44.550781 C 100.890625 44.640625 100.835938 44.730469 100.746094 44.75 C 100.660156 44.773438 100.570312 44.71875 100.546875 44.628906 C 100.105469 42.851562 98.9375 38.121094 93.0625 38.363281 C 84.179688 38.726562 83.90625 48.125 83.90625 48.21875 C 83.90625 48.308594 83.832031 48.382812 83.742188 48.382812 C 83.648438 48.382812 83.578125 48.308594 83.578125 48.21875 C 83.578125 48.121094 83.832031 38.410156 93.046875 38.035156 C 99.1875 37.78125 100.410156 42.699219 100.867188 44.550781 Z M 101.046875 41.105469 L 103.742188 41.105469 C 103.832031 41.105469 103.90625 41.179688 103.90625 41.269531 C 103.90625 41.363281 103.832031 41.4375 103.742188 41.4375 L 101.046875 41.4375 C 100.953125 41.4375 100.878906 41.363281 100.878906 41.269531 C 100.878906 41.179688 100.953125 41.105469 101.046875 41.105469 Z M 53.679688 36.003906 L 47.5625 36.003906 C 47.472656 36.003906 47.398438 35.929688 47.398438 35.839844 C 47.398438 35.746094 47.472656 35.675781 47.5625 35.675781 L 53.679688 35.675781 C 53.773438 35.675781 53.84375 35.746094 53.84375 35.839844 C 53.84375 35.929688 53.773438 36.003906 53.679688 36.003906 Z M 41.859375 37.066406 C 41.855469 37.160156 41.777344 37.230469 41.6875 37.226562 C 37.65625 37.0625 34.703125 38.410156 32.90625 41.230469 C 31.566406 43.335938 31.410156 45.511719 31.40625 45.53125 C 31.402344 45.617188 31.328125 45.6875 31.242188 45.6875 C 31.238281 45.6875 31.238281 45.6875 31.234375 45.683594 C 31.140625 45.679688 31.074219 45.601562 31.078125 45.511719 C 31.085938 45.417969 31.242188 43.226562 32.628906 41.050781 C 33.910156 39.039062 36.527344 36.6875 41.699219 36.894531 C 41.792969 36.898438 41.863281 36.976562 41.859375 37.066406 Z M 7.6875 37.542969 C 7.6875 37.453125 7.761719 37.378906 7.851562 37.378906 L 18.953125 37.378906 C 19.042969 37.378906 19.117188 37.453125 19.117188 37.542969 C 19.117188 37.636719 19.042969 37.710938 18.953125 37.710938 L 7.851562 37.710938 C 7.761719 37.710938 7.6875 37.636719 7.6875 37.542969 Z M 7.6875 38.671875 C 7.6875 38.578125 7.761719 38.503906 7.851562 38.503906 L 17.871094 38.503906 C 17.964844 38.503906 18.039062 38.578125 18.039062 38.671875 C 18.039062 38.761719 17.964844 38.835938 17.871094 38.835938 L 7.851562 38.835938 C 7.761719 38.835938 7.6875 38.761719 7.6875 38.671875 Z M 7.6875 39.796875 C 7.6875 39.707031 7.761719 39.632812 7.851562 39.632812 L 16.792969 39.632812 C 16.882812 39.632812 16.957031 39.707031 16.957031 39.796875 C 16.957031 39.886719 16.882812 39.960938 16.792969 39.960938 L 7.851562 39.960938 C 7.761719 39.960938 7.6875 39.886719 7.6875 39.796875 Z M 15.878906 40.921875 C 15.878906 41.011719 15.804688 41.085938 15.714844 41.085938 L 7.851562 41.085938 C 7.761719 41.085938 7.6875 41.011719 7.6875 40.921875 C 7.6875 40.832031 7.761719 40.757812 7.851562 40.757812 L 15.714844 40.757812 C 15.804688 40.757812 15.878906 40.832031 15.878906 40.921875 Z M 21.171875 32.757812 C 21.171875 32.847656 21.097656 32.921875 21.007812 32.921875 L 11.785156 32.921875 C 11.691406 32.921875 11.617188 32.847656 11.617188 32.757812 C 11.617188 32.667969 11.691406 32.59375 11.785156 32.59375 L 21.007812 32.59375 C 21.097656 32.59375 21.171875 32.667969 21.171875 32.757812 Z M 58.679688 30.144531 C 58.773438 30.144531 58.847656 30.21875 58.847656 30.308594 C 58.847656 30.402344 58.773438 30.476562 58.679688 30.476562 L 56.207031 30.476562 C 56.117188 30.476562 56.042969 30.402344 56.042969 30.308594 C 56.042969 30.21875 56.117188 30.144531 56.207031 30.144531 Z M 94.984375 22.574219 C 82.832031 19.433594 59.195312 18.09375 58.960938 18.082031 C 58.867188 18.074219 58.800781 17.996094 58.804688 17.90625 C 58.808594 17.816406 58.890625 17.746094 58.976562 17.75 C 59.214844 17.765625 82.882812 19.105469 95.066406 22.257812 C 95.15625 22.277344 95.210938 22.367188 95.1875 22.457031 C 95.167969 22.53125 95.101562 22.582031 95.027344 22.582031 C 95.011719 22.582031 95 22.578125 94.984375 22.574219 Z M 94.984375 22.574219 " fill-opacity="1" fill-rule="nonzero"/></g><g fill="#cc0200" fill-opacity="1"><g transform="translate(54.892749, 43.79817)"><g><path d="M 0.890625 0.046875 C 0.671875 0.046875 0.503906 -0.0078125 0.390625 -0.125 C 0.273438 -0.238281 0.21875 -0.394531 0.21875 -0.59375 C 0.21875 -0.71875 0.242188 -0.820312 0.296875 -0.90625 C 0.347656 -1 0.425781 -1.070312 0.53125 -1.125 C 0.644531 -1.1875 0.789062 -1.234375 0.96875 -1.265625 C 1.125 -1.285156 1.238281 -1.3125 1.3125 -1.34375 C 1.394531 -1.375 1.453125 -1.410156 1.484375 -1.453125 C 1.515625 -1.492188 1.53125 -1.546875 1.53125 -1.609375 C 1.53125 -1.703125 1.492188 -1.773438 1.421875 -1.828125 C 1.359375 -1.878906 1.253906 -1.90625 1.109375 -1.90625 C 0.960938 -1.90625 0.835938 -1.878906 0.734375 -1.828125 C 0.640625 -1.773438 0.550781 -1.695312 0.46875 -1.59375 L 0.4375 -1.59375 L 0.28125 -1.8125 C 0.375 -1.925781 0.488281 -2.015625 0.625 -2.078125 C 0.769531 -2.148438 0.929688 -2.1875 1.109375 -2.1875 C 1.359375 -2.1875 1.539062 -2.128906 1.65625 -2.015625 C 1.78125 -1.910156 1.84375 -1.757812 1.84375 -1.5625 L 1.84375 -0.421875 C 1.84375 -0.304688 1.894531 -0.25 2 -0.25 C 2.03125 -0.25 2.0625 -0.253906 2.09375 -0.265625 L 2.125 -0.25 L 2.15625 -0.03125 C 2.132812 -0.0195312 2.101562 -0.0078125 2.0625 0 C 2.019531 0.0078125 1.984375 0.015625 1.953125 0.015625 C 1.828125 0.015625 1.734375 -0.0078125 1.671875 -0.0625 C 1.617188 -0.113281 1.582031 -0.191406 1.5625 -0.296875 L 1.515625 -0.296875 C 1.460938 -0.179688 1.382812 -0.09375 1.28125 -0.03125 C 1.175781 0.0195312 1.046875 0.046875 0.890625 0.046875 Z M 0.953125 -0.21875 C 1.078125 -0.21875 1.179688 -0.242188 1.265625 -0.296875 C 1.347656 -0.347656 1.410156 -0.421875 1.453125 -0.515625 C 1.503906 -0.617188 1.53125 -0.738281 1.53125 -0.875 L 1.53125 -1.140625 L 1.5 -1.15625 C 1.445312 -1.125 1.382812 -1.09375 1.3125 -1.0625 C 1.25 -1.039062 1.15625 -1.019531 1.03125 -1 C 0.90625 -0.988281 0.804688 -0.960938 0.734375 -0.921875 C 0.660156 -0.890625 0.609375 -0.847656 0.578125 -0.796875 C 0.546875 -0.742188 0.53125 -0.675781 0.53125 -0.59375 C 0.53125 -0.46875 0.566406 -0.375 0.640625 -0.3125 C 0.722656 -0.25 0.828125 -0.21875 0.953125 -0.21875 Z M 0.953125 -0.21875 "/></g></g></g></svg>