<svg xmlns="http://www.w3.org/2000/svg" xmlns:xlink="http://www.w3.org/1999/xlink" width="150" zoomAndPan="magnify" viewBox="0 0 112.5 74.999997" height="100" preserveAspectRatio="xMidYMid meet" version="1.0"><defs><g/><clipPath id="222e241d00"><path d="M 24 13.367188 L 88 13.367188 L 88 16 L 24 16 Z M 24 13.367188 " clip-rule="nonzero"/></clipPath><clipPath id="9855d74fe8"><path d="M 9 15 L 98.261719 15 L 98.261719 51 L 9 51 Z M 9 15 " clip-rule="nonzero"/></clipPath><clipPath id="d5fdff51b7"><path d="M 8.660156 18 L 97 18 L 97 49 L 8.660156 49 Z M 8.660156 18 " clip-rule="nonzero"/></clipPath></defs><g clip-path="url(#222e241d00)"><path fill="#000000" d="M 26.578125 14.835938 C 26.164062 14.835938 25.753906 14.839844 25.339844 14.839844 C 25.109375 14.839844 24.914062 14.765625 24.90625 14.507812 C 24.898438 14.277344 24.964844 14.050781 25.226562 13.980469 C 25.574219 13.871094 25.929688 13.808594 26.289062 13.796875 C 29.820312 13.785156 33.351562 13.882812 36.875 13.734375 C 44.277344 13.425781 51.675781 13.730469 59.074219 13.542969 C 62.484375 13.457031 65.890625 13.542969 69.296875 13.453125 C 72.683594 13.363281 76.074219 13.40625 79.464844 13.386719 C 81.375 13.375 83.28125 13.539062 85.195312 13.460938 C 85.847656 13.433594 86.5 13.417969 87.152344 13.394531 C 87.519531 13.378906 87.851562 13.492188 87.855469 13.894531 C 87.855469 14.296875 87.523438 14.449219 87.164062 14.402344 C 86.671875 14.332031 86.417969 14.558594 86.332031 15 C 86.273438 15.304688 85.878906 15.390625 85.90625 15.730469 C 85.257812 15.875 85.207031 15.847656 85.097656 15.234375 C 84.980469 14.589844 84.980469 14.589844 84.425781 14.710938 C 81.058594 14.570312 77.695312 14.617188 74.328125 14.605469 C 74.171875 14.609375 74.019531 14.59375 73.867188 14.558594 C 73.566406 14.507812 73.265625 14.363281 72.960938 14.550781 C 72.808594 14.589844 72.65625 14.609375 72.5 14.605469 C 69.925781 14.582031 67.347656 14.855469 64.78125 14.6875 C 63.179688 14.578125 61.59375 14.8125 60.003906 14.6875 C 59.832031 14.707031 59.691406 14.78125 59.582031 14.914062 C 59.472656 15.046875 59.425781 15.199219 59.4375 15.371094 C 59.433594 15.78125 59.246094 15.960938 58.824219 15.90625 C 58.582031 15.878906 58.34375 15.878906 58.105469 15.90625 C 57.691406 15.957031 57.539062 15.757812 57.53125 15.382812 C 57.53125 15.296875 57.515625 15.210938 57.519531 15.125 C 57.542969 14.710938 57.359375 14.601562 56.988281 14.757812 C 56.71875 14.8125 56.445312 14.832031 56.167969 14.816406 C 53.019531 14.816406 49.875 14.828125 46.726562 14.808594 C 45.835938 14.804688 44.945312 14.710938 44.054688 14.671875 C 43.761719 14.667969 43.472656 14.679688 43.179688 14.710938 C 38.941406 14.988281 34.695312 14.917969 30.453125 14.914062 C 30.402344 14.910156 30.347656 14.90625 30.296875 14.898438 C 29.964844 14.792969 29.625 14.78125 29.285156 14.871094 C 28.378906 14.898438 27.476562 15 26.578125 14.835938 Z M 26.578125 14.835938 " fill-opacity="1" fill-rule="nonzero"/></g><g clip-path="url(#9855d74fe8)"><path fill="#cc0200" d="M 72.976562 49.628906 C 71.511719 49.664062 70.042969 49.734375 68.574219 49.730469 C 65.53125 49.722656 62.488281 49.824219 59.445312 49.875 C 57.503906 49.910156 55.558594 49.835938 53.625 49.960938 C 52.007812 50.066406 50.390625 49.945312 48.78125 50.066406 C 46.992188 50.199219 45.207031 50.140625 43.421875 50.136719 C 41.914062 50.128906 40.40625 50.007812 38.898438 49.941406 C 38.566406 49.394531 38.632812 48.777344 38.609375 48.1875 C 38.5625 47.089844 38.59375 45.988281 38.59375 44.886719 C 38.59375 44.25 38.410156 43.617188 38.503906 42.980469 C 38.644531 42.003906 38.582031 41.023438 38.589844 40.046875 C 38.601562 38.976562 38.613281 37.910156 38.589844 36.84375 C 38.558594 35.484375 38.726562 34.132812 38.707031 32.773438 C 38.699219 32.15625 38.894531 31.976562 39.527344 31.976562 C 43.367188 31.964844 47.203125 31.917969 51.039062 32 C 52.449219 32.027344 53.859375 32.0625 55.269531 32.066406 C 61.207031 32.078125 67.140625 32.078125 73.082031 32.066406 C 74.9375 32.058594 76.796875 32.019531 78.648438 31.9375 C 80.574219 31.851562 82.503906 31.828125 84.425781 31.886719 C 86.464844 31.953125 88.507812 32.019531 90.550781 32.140625 C 92.402344 32.25 94.261719 32.34375 96.117188 32.28125 C 96.460938 32.269531 96.816406 32.261719 97.0625 32.582031 C 97.214844 33.679688 97.382812 34.777344 97.519531 35.875 C 97.660156 36.996094 97.785156 38.113281 97.886719 39.238281 C 98.042969 40.972656 98.125 42.714844 98.277344 44.449219 C 98.371094 45.488281 98.554688 46.519531 98.515625 47.570312 C 98.484375 48.378906 98.03125 48.980469 97.253906 49.09375 C 95.648438 49.328125 94.039062 49.527344 92.429688 49.730469 C 92.257812 49.742188 92.085938 49.742188 91.914062 49.734375 C 91.710938 49.59375 91.75 49.371094 91.722656 49.171875 C 91.519531 47.632812 91.210938 46.125 90.457031 44.738281 C 89.035156 42.113281 86.847656 40.671875 83.878906 40.394531 C 82.863281 40.296875 81.855469 40.222656 80.847656 40.398438 C 77.050781 41.050781 74.6875 43.179688 73.550781 46.886719 C 73.308594 47.628906 73.175781 48.390625 73.15625 49.167969 C 73.1875 49.355469 73.128906 49.507812 72.976562 49.628906 Z M 38.378906 49.160156 C 38.449219 47.835938 38.261719 46.515625 38.269531 45.191406 C 38.285156 43.039062 38.277344 40.886719 38.273438 38.734375 C 38.269531 36.738281 38.449219 34.746094 38.375 32.75 C 38.347656 32.042969 38.214844 31.871094 37.527344 31.878906 C 35.566406 31.90625 33.605469 31.808594 31.644531 31.953125 C 28.832031 32.167969 26.011719 32.21875 23.199219 32.367188 C 20.683594 32.5 18.292969 33.003906 16.074219 34.234375 C 15.710938 34.40625 15.480469 34.691406 15.386719 35.082031 C 15.167969 35.984375 14.972656 36.894531 14.828125 37.8125 C 14.554688 39.5625 14.402344 41.328125 14.246094 43.09375 C 14.175781 43.890625 13.992188 44.695312 14.175781 45.503906 C 14.394531 45.738281 14.691406 45.757812 14.980469 45.777344 C 15.425781 45.808594 15.875 45.792969 16.320312 45.792969 C 17.570312 45.792969 17.578125 45.804688 17.640625 47.042969 C 17.660156 47.378906 17.632812 47.738281 17.945312 47.984375 L 18.625 47.976562 C 18.949219 47.777344 18.929688 47.417969 19.011719 47.113281 C 19.914062 43.894531 21.941406 41.683594 25.089844 40.605469 C 26.167969 40.226562 27.277344 40.054688 28.417969 40.097656 C 29.558594 40.136719 30.65625 40.382812 31.703125 40.835938 C 33.328125 41.523438 34.71875 42.554688 35.644531 44.117188 C 36.636719 45.804688 37.21875 47.625 37.398438 49.574219 C 37.390625 49.71875 37.4375 49.84375 37.539062 49.949219 L 38.179688 49.9375 C 38.394531 49.71875 38.363281 49.433594 38.378906 49.160156 Z M 93.683594 18.71875 C 93.125 18.144531 92.597656 17.527344 91.917969 17.078125 C 91.523438 16.800781 91.097656 16.59375 90.636719 16.449219 C 89.15625 16.023438 87.632812 15.96875 86.117188 15.84375 C 86.007812 15.792969 85.894531 15.757812 85.777344 15.742188 C 85.269531 15.617188 85.007812 15.835938 85.03125 16.347656 C 85.039062 16.488281 85.066406 16.621094 85.121094 16.75 C 85.222656 17.003906 85.363281 17.265625 85.042969 17.480469 C 84.882812 17.605469 84.722656 17.601562 84.5625 17.476562 C 84.253906 17.246094 84.457031 16.992188 84.527344 16.734375 C 84.628906 16.339844 84.78125 15.925781 84.339844 15.617188 C 84.121094 15.554688 83.902344 15.527344 83.679688 15.542969 C 80.660156 15.542969 77.640625 15.542969 74.621094 15.542969 C 74.378906 15.523438 74.140625 15.554688 73.910156 15.632812 C 73.617188 15.808594 73.65625 16.097656 73.664062 16.371094 C 73.695312 16.558594 73.734375 16.742188 73.785156 16.925781 C 73.828125 17.179688 73.753906 17.378906 73.457031 17.398438 C 73.328125 17.421875 73.214844 17.386719 73.121094 17.296875 C 73.023438 17.207031 72.984375 17.097656 73.003906 16.964844 C 73.027344 16.796875 73.066406 16.628906 73.117188 16.464844 C 73.160156 16.15625 73.230469 15.839844 72.898438 15.628906 C 72.648438 15.558594 72.394531 15.527344 72.136719 15.542969 C 71.050781 15.484375 69.976562 15.65625 68.890625 15.652344 C 66.3125 15.636719 63.734375 15.644531 61.15625 15.648438 C 60.863281 15.625 60.574219 15.648438 60.285156 15.71875 C 59.839844 16.082031 59.816406 16.238281 60.179688 16.964844 C 60.292969 17.191406 60.3125 17.394531 60.125 17.574219 C 59.964844 17.734375 59.792969 17.757812 59.597656 17.640625 C 59.492188 17.597656 59.410156 17.523438 59.351562 17.421875 C 59.292969 17.320312 59.277344 17.214844 59.292969 17.097656 C 59.308594 16.980469 59.363281 16.867188 59.390625 16.75 C 59.542969 16.089844 59.328125 15.8125 58.660156 15.804688 C 58.488281 15.800781 58.3125 15.796875 58.140625 15.804688 C 57.660156 15.828125 57.476562 16.074219 57.566406 16.554688 C 57.609375 16.722656 57.6875 16.875 57.792969 17.011719 C 57.9375 17.21875 57.96875 17.433594 57.765625 17.613281 C 57.574219 17.757812 57.382812 17.753906 57.195312 17.609375 C 57.007812 17.464844 56.957031 17.28125 57.046875 17.058594 C 57.089844 16.949219 57.152344 16.84375 57.1875 16.726562 C 57.351562 16.171875 57.199219 15.910156 56.625 15.761719 C 52.679688 15.730469 48.730469 15.753906 44.785156 15.75 C 44.609375 15.746094 44.441406 15.773438 44.277344 15.832031 C 43.996094 15.976562 44.035156 16.253906 43.984375 16.503906 C 43.910156 16.839844 44.394531 17.488281 43.699219 17.464844 C 43 17.4375 43.503906 16.839844 43.488281 16.496094 C 43.476562 16.234375 43.515625 15.972656 43.230469 15.828125 C 42.960938 15.753906 42.691406 15.726562 42.414062 15.75 C 40.832031 15.75 39.25 15.808594 37.667969 15.832031 C 35.570312 15.863281 33.472656 16.023438 31.375 15.960938 C 31.234375 15.957031 31.097656 15.96875 30.960938 15.996094 C 30.859375 16.015625 30.761719 16.050781 30.660156 16.074219 C 29.949219 16.242188 29.808594 16.511719 30.078125 17.199219 C 30.109375 17.28125 30.160156 17.355469 30.183594 17.4375 C 30.234375 17.625 30.265625 17.820312 30.078125 17.953125 C 29.914062 18.066406 29.753906 18.0625 29.597656 17.9375 C 29.515625 17.882812 29.460938 17.808594 29.433594 17.710938 C 29.40625 17.617188 29.417969 17.523438 29.460938 17.433594 C 29.488281 17.355469 29.523438 17.277344 29.550781 17.195312 C 29.8125 16.453125 29.660156 16.195312 28.898438 16.074219 C 28.40625 16.105469 27.894531 15.945312 27.429688 16.234375 C 26.816406 16.277344 26.199219 16.332031 25.585938 16.367188 C 23.585938 16.472656 21.816406 17.136719 20.355469 18.539062 C 20.117188 18.769531 19.65625 18.988281 19.765625 19.300781 C 19.902344 19.695312 20.410156 19.65625 20.804688 19.675781 C 20.941406 19.800781 21.101562 19.84375 21.28125 19.804688 C 22.914062 19.714844 24.546875 19.621094 26.175781 19.589844 C 29.253906 19.53125 32.328125 19.351562 35.40625 19.355469 C 36.285156 19.359375 37.160156 19.398438 38.039062 19.324219 C 38.304688 19.339844 38.578125 19.375 38.796875 19.160156 C 41.285156 19.097656 43.777344 19.214844 46.269531 19.082031 C 47.324219 19.023438 48.386719 19.09375 49.449219 19.085938 C 52.679688 19.050781 55.898438 18.890625 59.121094 18.769531 C 62.019531 18.660156 64.921875 18.792969 67.824219 18.914062 C 70.085938 19.007812 72.351562 19.136719 74.613281 19.152344 C 77.859375 19.167969 81.105469 19.175781 84.347656 19.144531 C 85.691406 19.132812 87.023438 19.265625 88.363281 19.285156 C 88.886719 19.289062 89.421875 19.332031 89.949219 19.386719 C 91.261719 19.515625 92.570312 19.648438 93.878906 19.777344 C 94.09375 19.375 93.972656 19.019531 93.683594 18.71875 Z M 9.570312 40.8125 C 9.382812 42.023438 9.183594 43.226562 9.25 44.457031 C 9.292969 44.539062 9.355469 44.589844 9.441406 44.621094 C 10.636719 45.0625 11.867188 45.371094 13.128906 45.539062 C 13.316406 45.585938 13.472656 45.535156 13.59375 45.386719 C 13.820312 41.984375 14.058594 38.578125 14.847656 35.101562 C 13.542969 35.964844 12.4375 36.851562 11.539062 37.957031 C 10.945312 38.6875 10.425781 39.46875 9.875 40.230469 C 9.730469 40.402344 9.632812 40.597656 9.570312 40.8125 Z M 9.570312 40.8125 " fill-opacity="1" fill-rule="nonzero"/></g><path fill="#cc0200" d="M 38.179688 49.9375 C 38.050781 45.746094 38.023438 41.550781 38.101562 37.359375 C 38.125 35.78125 38.148438 34.199219 38.1875 32.621094 C 38.199219 32.195312 38.074219 32.058594 37.640625 32.0625 C 35.902344 32.085938 34.160156 32 32.429688 32.089844 C 30.269531 32.203125 28.117188 32.316406 25.957031 32.402344 C 24.226562 32.445312 22.503906 32.578125 20.789062 32.796875 C 19.710938 32.945312 18.675781 33.246094 17.6875 33.691406 C 17.171875 33.929688 16.671875 34.191406 16.148438 34.40625 C 15.785156 34.550781 15.640625 34.804688 15.554688 35.167969 C 15.078125 37.238281 14.765625 39.332031 14.613281 41.449219 C 14.519531 42.660156 14.324219 43.863281 14.316406 45.082031 C 14.316406 45.222656 14.285156 45.351562 14.210938 45.472656 C 13.996094 45.710938 13.78125 45.644531 13.570312 45.472656 C 13.378906 45.214844 13.410156 44.914062 13.441406 44.628906 C 13.742188 41.652344 13.875 38.65625 14.535156 35.726562 C 14.542969 35.691406 14.535156 35.65625 14.492188 35.5625 C 13.84375 36 13.234375 36.484375 12.660156 37.015625 C 11.738281 37.835938 11.070312 38.863281 10.367188 39.859375 C 10.246094 40.03125 10.167969 40.28125 9.871094 40.230469 C 9.835938 39.605469 9.824219 38.980469 10.183594 38.429688 C 10.304688 38.242188 10.269531 38.039062 10.296875 37.84375 C 11.753906 35.980469 13.097656 34 15.089844 32.636719 C 16.988281 31.339844 19.082031 30.589844 21.410156 30.539062 C 24.039062 30.480469 26.664062 30.375 29.289062 30.304688 C 32.191406 30.226562 35.09375 30.078125 38 30.148438 C 38.546875 30.101562 39.078125 30.40625 39.632812 30.214844 C 42.609375 30.152344 45.582031 30.042969 48.558594 30.039062 C 52.667969 30.027344 56.78125 30.070312 60.890625 30.125 C 63.691406 30.164062 66.496094 30.222656 69.296875 30.339844 C 72.875 30.484375 76.449219 30.6875 80.023438 30.59375 C 82.484375 30.53125 84.949219 30.609375 87.40625 30.480469 C 89.972656 30.351562 92.53125 30.546875 95.089844 30.542969 C 95.640625 30.539062 96.1875 30.664062 96.738281 30.613281 C 96.847656 31.269531 96.953125 31.925781 97.058594 32.582031 C 96.828125 32.515625 96.589844 32.484375 96.347656 32.484375 C 94.457031 32.550781 92.566406 32.4375 90.679688 32.359375 C 88.949219 32.289062 87.214844 32.242188 85.488281 32.144531 C 83.472656 32.035156 81.460938 32.035156 79.457031 32.105469 C 78.046875 32.152344 76.640625 32.136719 75.230469 32.175781 C 67.507812 32.398438 59.78125 32.300781 52.058594 32.238281 C 47.898438 32.207031 43.738281 32.230469 39.574219 32.171875 C 38.902344 32.160156 38.925781 32.171875 38.898438 32.847656 C 38.765625 35.953125 38.871094 39.066406 38.773438 42.175781 C 38.707031 44.253906 38.886719 46.324219 38.816406 48.402344 C 38.796875 48.910156 38.929688 49.425781 38.898438 49.941406 Z M 96.546875 42.085938 C 96.996094 42.066406 97.410156 41.722656 97.363281 41.398438 C 97.304688 40.949219 96.96875 40.792969 96.5625 40.75 C 96.492188 40.742188 96.421875 40.753906 96.355469 40.746094 C 95.921875 40.691406 95.503906 40.804688 95.078125 40.855469 C 94.027344 40.980469 92.980469 41.125 91.933594 41.285156 C 91.664062 41.324219 91.375 41.460938 91.398438 41.804688 C 91.421875 42.136719 91.703125 42.257812 91.984375 42.285156 C 92.292969 42.316406 92.601562 42.3125 92.90625 42.273438 C 93.675781 42.140625 94.449219 42.078125 95.230469 42.089844 C 95.757812 42.089844 96.152344 42.101562 96.546875 42.085938 Z M 95.796875 44.226562 C 96.246094 44.191406 96.71875 44.1875 97.140625 43.949219 C 97.332031 43.851562 97.410156 43.695312 97.371094 43.484375 C 97.382812 43.394531 97.355469 43.3125 97.300781 43.246094 C 97.242188 43.175781 97.167969 43.136719 97.078125 43.125 C 96.847656 43.058594 96.613281 43.023438 96.371094 43.019531 C 95.042969 43.105469 93.722656 43.25 92.40625 43.441406 C 92.296875 43.445312 92.207031 43.488281 92.128906 43.566406 C 92.054688 43.640625 92.011719 43.734375 92.007812 43.84375 C 91.988281 43.949219 92.003906 44.046875 92.058594 44.140625 C 92.113281 44.234375 92.191406 44.300781 92.292969 44.335938 C 92.460938 44.417969 92.636719 44.46875 92.824219 44.480469 C 93.890625 44.355469 94.84375 44.304688 95.796875 44.226562 Z M 96.949219 46.113281 C 97.070312 46.101562 97.1875 46.074219 97.296875 46.019531 C 97.46875 45.972656 97.574219 45.859375 97.617188 45.683594 C 97.65625 45.507812 97.605469 45.359375 97.46875 45.242188 C 97.28125 45.039062 97.046875 44.953125 96.773438 44.984375 C 96.210938 45.019531 95.652344 45.085938 95.085938 45.101562 C 94.488281 45.125 93.894531 45.195312 93.308594 45.3125 C 92.992188 45.371094 92.597656 45.457031 92.625 45.929688 C 92.652344 46.402344 93.03125 46.292969 93.339844 46.335938 C 94.539062 46.179688 95.742188 46.105469 96.949219 46.109375 Z M 94.585938 48.28125 C 95.40625 48.238281 96.222656 48.15625 97.035156 48.078125 C 97.199219 48.074219 97.339844 48.011719 97.453125 47.890625 C 97.570312 47.773438 97.625 47.632812 97.625 47.46875 C 97.621094 47.132812 97.285156 47.160156 97.027344 47.144531 C 95.824219 47.078125 94.640625 47.355469 93.445312 47.375 C 93.128906 47.378906 92.816406 47.539062 92.835938 47.9375 C 92.859375 48.367188 93.207031 48.359375 93.558594 48.402344 C 93.898438 48.332031 94.242188 48.289062 94.585938 48.28125 Z M 94.585938 48.28125 " fill-opacity="1" fill-rule="nonzero"/><g clip-path="url(#d5fdff51b7)"><path fill="#cc0200" d="M 93.878906 19.777344 C 95.363281 22.109375 95.769531 24.777344 96.234375 27.421875 C 96.421875 28.480469 96.570312 29.546875 96.738281 30.613281 C 96.460938 30.828125 96.148438 30.886719 95.808594 30.796875 C 95.3125 30.726562 94.816406 30.703125 94.316406 30.726562 C 92.542969 30.753906 90.777344 30.527344 89.003906 30.625 C 86.410156 30.773438 83.808594 30.660156 81.214844 30.75 C 80.03125 30.789062 78.84375 30.855469 77.660156 30.820312 C 74.894531 30.738281 72.125 30.734375 69.367188 30.523438 C 69.332031 30.523438 69.296875 30.519531 69.261719 30.523438 C 67.4375 30.589844 65.617188 30.453125 63.796875 30.398438 C 59.941406 30.28125 56.089844 30.382812 52.238281 30.285156 C 50.660156 30.246094 49.078125 30.203125 47.503906 30.234375 C 45.769531 30.269531 44.03125 30.253906 42.296875 30.332031 C 41.402344 30.375 40.511719 30.421875 39.617188 30.402344 C 38.492188 30.257812 38.492188 30.257812 38.492188 29.074219 C 38.492188 27.078125 38.472656 25.082031 38.496094 23.085938 C 38.511719 21.953125 38.632812 20.820312 38.601562 19.683594 C 38.585938 19.488281 38.636719 19.308594 38.75 19.144531 C 38.992188 18.929688 39.292969 18.957031 39.582031 18.957031 C 41.113281 18.949219 42.644531 18.949219 44.175781 18.953125 C 45.445312 18.957031 46.71875 18.953125 47.984375 18.925781 C 49.960938 18.878906 51.945312 18.9375 53.917969 18.828125 C 57.195312 18.652344 60.476562 18.445312 63.761719 18.554688 C 66.285156 18.640625 68.808594 18.699219 71.332031 18.835938 C 74.789062 19.027344 78.246094 18.996094 81.703125 18.925781 C 83.40625 18.890625 85.101562 19.003906 86.796875 19.035156 C 88.484375 19.066406 90.160156 19.238281 91.839844 19.363281 C 92.386719 19.40625 92.933594 19.492188 93.476562 19.578125 C 93.636719 19.589844 93.773438 19.65625 93.878906 19.777344 Z M 38.234375 29.679688 C 38.214844 28.582031 38.179688 27.484375 38.167969 26.386719 C 38.144531 24.269531 38.355469 22.15625 38.277344 20.042969 C 38.265625 19.738281 38.320312 19.414062 38.078125 19.160156 C 32.316406 19.140625 26.558594 19.332031 20.804688 19.675781 C 20.765625 20.035156 20.375 19.988281 20.191406 20.21875 C 18.363281 22.53125 16.691406 24.960938 14.914062 27.3125 C 12.554688 30.433594 11.605469 34.226562 10.296875 37.839844 C 10.535156 37.695312 10.6875 37.460938 10.878906 37.265625 C 12.09375 36.078125 12.957031 34.582031 14.28125 33.484375 C 16.214844 31.882812 18.40625 30.886719 20.910156 30.746094 C 23.910156 30.578125 26.917969 30.515625 29.925781 30.433594 C 32.195312 30.371094 34.464844 30.351562 36.734375 30.3125 C 37.144531 30.308594 37.558594 30.304688 37.972656 30.296875 C 38.242188 30.171875 38.238281 29.925781 38.234375 29.679688 Z M 8.882812 45.585938 C 8.675781 47.058594 9.101562 47.679688 10.53125 48.050781 C 10.628906 48.074219 10.734375 48.078125 10.832031 48.101562 C 12.875 48.558594 14.957031 48.707031 17.035156 48.867188 C 17.78125 48.925781 17.847656 48.828125 17.945312 47.984375 C 17.886719 47.425781 17.808594 46.867188 17.773438 46.304688 C 17.738281 45.746094 17.4375 45.59375 16.925781 45.59375 C 16.019531 45.59375 15.105469 45.6875 14.210938 45.472656 C 13.996094 45.5 13.78125 45.546875 13.59375 45.386719 C 12.867188 45.398438 12.175781 45.195312 11.476562 45.050781 C 10.722656 44.898438 10.015625 44.558594 9.25 44.460938 C 8.835938 44.738281 8.9375 45.199219 8.882812 45.585938 Z M 35.113281 35.886719 C 35.492188 35.878906 35.734375 35.722656 35.707031 35.292969 C 35.695312 35.085938 35.710938 34.878906 35.691406 34.675781 C 35.699219 34.566406 35.664062 34.46875 35.59375 34.386719 C 35.527344 34.300781 35.4375 34.253906 35.328125 34.238281 C 34.457031 34.09375 33.585938 34.113281 32.71875 34.292969 C 32.085938 34.429688 32.300781 34.953125 32.304688 35.347656 C 32.308594 35.695312 32.488281 35.917969 32.894531 35.894531 C 33.253906 35.875 33.617188 35.890625 33.976562 35.890625 C 34.355469 35.890625 34.734375 35.898438 35.113281 35.886719 Z M 35.113281 35.886719 " fill-opacity="1" fill-rule="nonzero"/></g><path fill="#000000" d="M 90.144531 50.363281 C 89.753906 51.4375 89.421875 52.5625 88.707031 53.457031 C 87.386719 55.101562 85.8125 56.332031 83.527344 56.363281 C 81.070312 56.398438 78.851562 55.785156 76.953125 54.199219 C 75.710938 53.171875 74.96875 51.859375 74.730469 50.261719 C 74.703125 50.21875 74.667969 50.164062 74.683594 50.117188 C 75.121094 48.59375 75.214844 46.972656 76.117188 45.578125 C 77.410156 43.582031 79.136719 42.355469 81.550781 42.109375 C 83.136719 41.949219 84.628906 42.253906 86.089844 42.796875 C 87.636719 43.367188 88.660156 44.5 89.25 46.003906 C 89.675781 47.089844 89.996094 48.222656 90.003906 49.410156 C 90.007812 49.738281 90.238281 50.023438 90.144531 50.363281 Z M 35.074219 46.4375 C 34.1875 44.207031 32.691406 42.691406 30.246094 42.253906 C 29.734375 42.160156 29.21875 42.160156 28.710938 42.074219 C 26.402344 41.6875 22.851562 43.148438 21.738281 45.394531 C 21.363281 46.152344 20.980469 46.902344 20.757812 47.714844 C 20.632812 48.289062 20.414062 48.828125 20.105469 49.328125 C 20.015625 51.53125 20.773438 53.402344 22.523438 54.738281 C 25.027344 56.648438 27.898438 57.179688 30.871094 56.226562 C 33.640625 55.339844 35.03125 53.101562 35.71875 50.378906 C 35.792969 49.859375 35.578125 49.371094 35.546875 48.859375 C 35.519531 48.023438 35.363281 47.21875 35.074219 46.4375 Z M 78.082031 21.738281 C 78.285156 23.558594 78.308594 25.394531 78.582031 27.210938 C 78.746094 28.289062 79.308594 28.503906 80.210938 28.542969 C 83.015625 28.671875 85.824219 28.726562 88.636719 28.585938 C 89.75 28.53125 89.601562 28.378906 89.679688 27.480469 C 89.691406 27.332031 89.640625 27.175781 89.648438 27.023438 C 89.703125 25.371094 89.402344 23.75 89.304688 22.109375 C 89.265625 21.429688 89.238281 20.6875 88.480469 20.3125 C 88.304688 20.25 88.125 20.207031 87.941406 20.179688 C 86.730469 20.027344 85.515625 20.074219 84.300781 20.042969 C 82.667969 20.007812 81.042969 19.972656 79.414062 20.074219 C 78.238281 20.148438 77.980469 20.402344 78.070312 21.582031 C 78.074219 21.632812 78.078125 21.683594 78.082031 21.738281 Z M 76.804688 27.023438 C 76.652344 25.328125 76.785156 23.625 76.613281 21.929688 C 76.464844 20.5 76.402344 20.375 75.363281 20.105469 C 74.832031 20.0625 74.304688 19.984375 73.773438 19.988281 C 71.457031 20.007812 69.144531 20.046875 66.828125 20.082031 C 66.226562 20.09375 65.851562 20.402344 65.769531 20.980469 C 65.707031 21.351562 65.679688 21.730469 65.683594 22.109375 C 65.757812 23.804688 65.714844 25.507812 65.882812 27.203125 C 65.839844 28.03125 66.40625 28.414062 66.976562 28.378906 C 67.214844 28.363281 67.457031 28.34375 67.695312 28.351562 C 70.34375 28.4375 72.988281 28.246094 75.636719 28.230469 C 76.617188 28.226562 76.902344 28.082031 76.804688 27.023438 Z M 63.476562 21.925781 C 63.386719 21.257812 63.386719 20.503906 62.652344 20.105469 C 61.785156 19.9375 60.90625 19.992188 60.03125 19.980469 C 57.847656 19.929688 55.667969 20.03125 53.496094 20.28125 C 52.695312 20.382812 52.449219 20.683594 52.4375 21.5 C 52.410156 23.441406 52.40625 25.382812 52.652344 27.3125 C 52.746094 27.917969 53.136719 28.320312 53.714844 28.347656 C 54.535156 28.390625 55.355469 28.464844 56.179688 28.460938 C 58.292969 28.457031 60.402344 28.460938 62.511719 28.355469 C 63.265625 28.316406 63.546875 28.0625 63.589844 27.300781 C 63.609375 26.871094 63.472656 26.433594 63.511719 26.027344 C 63.65625 24.65625 63.644531 23.289062 63.476562 21.925781 Z M 49.851562 21.09375 C 49.785156 20.632812 49.644531 20.222656 49.121094 20.097656 C 48.902344 19.972656 48.664062 19.898438 48.410156 19.875 C 46.714844 19.628906 45.023438 19.914062 43.332031 19.917969 C 42.597656 19.917969 41.867188 20.019531 41.136719 20.050781 C 40.605469 20.074219 40.394531 20.421875 40.261719 20.847656 C 40.203125 21.078125 40.171875 21.316406 40.171875 21.558594 C 40.058594 23.585938 40.207031 25.601562 40.359375 27.621094 C 40.324219 27.765625 40.429688 27.835938 40.515625 27.921875 C 40.949219 28.351562 41.488281 28.457031 42.070312 28.457031 C 43.769531 28.453125 45.46875 28.464844 47.167969 28.449219 C 47.785156 28.453125 48.402344 28.414062 49.015625 28.335938 C 49.441406 28.277344 49.800781 28.117188 49.886719 27.5625 C 50 26.710938 50.03125 25.859375 49.984375 25 C 49.949219 23.695312 50.039062 22.390625 49.851562 21.089844 Z M 35.894531 20.523438 C 35.609375 20.460938 35.324219 20.417969 35.035156 20.390625 C 32.410156 20.394531 29.78125 20.332031 27.15625 20.476562 C 26.710938 20.46875 26.382812 20.660156 26.175781 21.054688 C 24.878906 23.15625 23.730469 25.34375 22.585938 27.53125 C 22.480469 27.683594 22.378906 27.839844 22.277344 27.996094 C 22.046875 28.359375 22.171875 28.53125 22.578125 28.527344 C 22.917969 28.5 23.257812 28.488281 23.601562 28.496094 C 25.335938 28.664062 27.070312 28.464844 28.800781 28.417969 C 31.117188 28.359375 33.429688 28.320312 35.742188 28.433594 C 36.128906 28.449219 36.300781 28.3125 36.3125 27.960938 C 36.390625 25.804688 36.671875 23.65625 36.640625 21.492188 C 36.632812 20.929688 36.433594 20.625 35.894531 20.523438 Z M 20.539062 28.011719 C 20.980469 27.238281 21.433594 26.46875 21.898438 25.710938 C 22.832031 24.195312 23.78125 22.6875 24.71875 21.171875 C 24.828125 21 24.957031 20.792969 24.84375 20.597656 C 24.730469 20.402344 24.507812 20.515625 24.328125 20.519531 C 23.417969 20.546875 22.511719 20.585938 21.605469 20.601562 C 21.355469 20.605469 21.257812 20.761719 21.121094 20.917969 C 19.863281 22.367188 18.847656 23.996094 17.730469 25.546875 C 17.1875 26.308594 16.476562 26.945312 16.09375 27.824219 C 16.046875 28.367188 16.429688 28.441406 16.820312 28.449219 C 17.800781 28.464844 18.78125 28.433594 19.761719 28.464844 C 19.925781 28.480469 20.082031 28.445312 20.222656 28.363281 C 20.367188 28.277344 20.472656 28.160156 20.539062 28.011719 Z M 20.539062 28.011719 " fill-opacity="1" fill-rule="nonzero"/><path fill="#cccac9" d="M 37.972656 30.296875 C 38.195312 29.753906 38.035156 29.183594 38.019531 28.640625 C 37.980469 26.90625 37.929688 25.175781 38.050781 23.445312 C 38.113281 22.605469 38.070312 21.757812 38.074219 20.917969 C 38.078125 20.332031 38.078125 19.746094 38.078125 19.160156 L 38.796875 19.160156 C 38.71875 22.519531 38.671875 25.875 38.695312 29.234375 C 38.703125 30.179688 38.695312 30.179688 39.632812 30.214844 C 39.085938 30.382812 38.527344 30.292969 37.972656 30.296875 Z M 90.851562 50.46875 C 91.59375 50.628906 91.828125 50.472656 91.914062 49.734375 C 91.820312 47.847656 91.425781 46.039062 90.46875 44.394531 C 89.550781 42.816406 88.320312 41.527344 86.585938 40.871094 C 84.511719 40.089844 82.347656 39.859375 80.175781 40.351562 C 78.105469 40.816406 76.28125 41.761719 75.007812 43.550781 C 73.710938 45.367188 72.957031 47.367188 72.976562 49.628906 C 72.953125 50.046875 73.167969 50.199219 73.5625 50.300781 C 73.972656 50.410156 74.339844 50.222656 74.726562 50.265625 C 75.140625 49.636719 75.105469 48.894531 75.269531 48.203125 C 75.875 45.675781 77.210938 43.714844 79.699219 42.71875 C 81.378906 42.046875 83.101562 42.121094 84.835938 42.566406 C 86.039062 42.878906 87.171875 43.328125 87.996094 44.28125 C 89.253906 45.722656 89.691406 47.496094 89.824219 49.355469 C 89.824219 49.726562 89.929688 50.0625 90.144531 50.363281 C 90.394531 50.308594 90.621094 50.421875 90.851562 50.46875 Z M 35.714844 50.378906 C 35.308594 49.683594 35.386719 48.886719 35.300781 48.136719 C 35 45.488281 33.171875 42.839844 30.132812 42.40625 C 28.757812 42.207031 27.386719 42.058594 26.011719 42.449219 C 23.136719 43.269531 21.53125 45.246094 20.820312 48.066406 C 20.699219 48.539062 20.722656 49.125 20.105469 49.328125 C 18.929688 49.441406 18.757812 48.980469 18.628906 47.976562 C 18.839844 47.097656 19.054688 46.214844 19.464844 45.402344 C 20.917969 42.507812 23.175781 40.675781 26.410156 40.121094 C 28.152344 39.789062 29.851562 39.9375 31.507812 40.566406 C 34.058594 41.566406 35.832031 43.359375 36.722656 45.960938 C 37.167969 47.25 37.628906 48.546875 37.542969 49.949219 C 37.3125 50.582031 37.0625 50.707031 36.292969 50.554688 C 36.097656 50.507812 35.90625 50.449219 35.714844 50.378906 Z M 84.542969 14.601562 C 85.035156 14.230469 85.117188 14.265625 85.203125 14.867188 C 85.21875 14.984375 85.292969 15.109375 85.273438 15.214844 C 85.175781 15.777344 85.5 15.800781 85.90625 15.730469 L 86.117188 15.839844 C 86.015625 15.847656 85.914062 15.859375 85.808594 15.859375 C 85.125 15.875 84.964844 16.167969 85.339844 16.769531 C 85.527344 17.074219 85.550781 17.324219 85.273438 17.585938 C 84.980469 17.859375 84.6875 17.824219 84.390625 17.621094 C 84.148438 17.457031 84.035156 17.203125 84.21875 16.960938 C 84.511719 16.582031 84.464844 16.164062 84.457031 15.742188 C 84.195312 15.339844 84.296875 14.964844 84.542969 14.601562 Z M 59.855469 14.519531 C 60.347656 14.871094 60.113281 15.398438 60.183594 15.851562 C 60.058594 16.199219 59.96875 16.523438 60.320312 16.828125 C 60.601562 17.070312 60.5625 17.394531 60.339844 17.664062 C 60.246094 17.796875 60.117188 17.878906 59.960938 17.914062 C 59.800781 17.949219 59.648438 17.925781 59.507812 17.84375 C 59.179688 17.683594 59.011719 17.429688 59.085938 17.058594 C 59.128906 16.945312 59.179688 16.839844 59.242188 16.734375 C 59.433594 16.246094 59.234375 15.953125 58.714844 15.957031 C 58.542969 15.949219 58.371094 15.953125 58.199219 15.96875 C 58.03125 15.988281 57.773438 15.871094 57.726562 16.136719 C 57.6875 16.359375 57.613281 16.621094 57.855469 16.804688 C 58.214844 17.078125 58.246094 17.421875 57.96875 17.738281 C 57.703125 18.039062 57.332031 18.011719 57.039062 17.773438 C 56.714844 17.511719 56.667969 17.195312 56.949219 16.828125 C 57.226562 16.464844 57.128906 16.097656 56.761719 15.941406 C 56.96875 15.871094 57.097656 15.769531 57.074219 15.511719 C 57.046875 15.214844 57.0625 14.910156 57.058594 14.609375 C 57.097656 14.515625 57.167969 14.453125 57.261719 14.417969 C 57.355469 14.382812 57.445312 14.386719 57.539062 14.429688 C 57.726562 14.503906 57.714844 14.695312 57.71875 14.871094 C 57.757812 15.859375 57.757812 15.839844 58.769531 15.847656 C 59.148438 15.851562 59.296875 15.753906 59.261719 15.363281 C 59.222656 14.933594 59.332031 14.570312 59.855469 14.519531 Z M 30.09375 14.730469 C 30.105469 14.953125 30.121094 15.171875 30.125 15.394531 C 30.144531 16.117188 30.140625 16.117188 30.84375 16.179688 C 29.957031 16.402344 29.964844 16.398438 30.382812 17.351562 C 30.503906 17.628906 30.519531 17.953125 30.238281 18.144531 C 30.113281 18.230469 29.976562 18.269531 29.824219 18.261719 C 29.671875 18.257812 29.539062 18.203125 29.421875 18.105469 C 29.292969 18.019531 29.214844 17.902344 29.183594 17.75 C 29.15625 17.597656 29.1875 17.457031 29.28125 17.332031 C 29.320312 17.257812 29.378906 17.191406 29.417969 17.117188 C 29.667969 16.640625 29.5 16.3125 28.972656 16.246094 C 29.351562 16.203125 29.453125 15.984375 29.414062 15.625 C 29.394531 15.324219 29.390625 15.019531 29.402344 14.714844 C 29.640625 14.433594 29.867188 14.628906 30.09375 14.730469 Z M 73.710938 14.414062 C 73.9375 14.839844 73.769531 15.300781 73.824219 15.746094 C 73.835938 16.128906 73.757812 16.511719 73.996094 16.878906 C 74.054688 16.992188 74.066406 17.109375 74.03125 17.234375 C 73.996094 17.355469 73.925781 17.449219 73.816406 17.515625 C 73.695312 17.601562 73.558594 17.644531 73.40625 17.640625 C 73.257812 17.636719 73.125 17.585938 73.003906 17.496094 C 72.878906 17.417969 72.800781 17.3125 72.761719 17.171875 C 72.726562 17.03125 72.742188 16.894531 72.816406 16.769531 C 73.027344 16.429688 72.984375 16.089844 72.992188 15.738281 C 73.019531 15.292969 73.046875 14.84375 73.074219 14.398438 C 73.296875 13.964844 73.5 14.277344 73.710938 14.414062 Z M 43.34375 15.953125 C 43.34375 15.710938 43.347656 15.472656 43.34375 15.234375 C 43.332031 14.972656 43.410156 14.804688 43.710938 14.804688 C 44.007812 14.804688 44.160156 14.9375 44.164062 15.230469 C 44.171875 15.46875 44.171875 15.710938 44.171875 15.949219 C 44.175781 16.316406 44.097656 16.679688 44.269531 17.046875 C 44.324219 17.160156 44.332031 17.277344 44.289062 17.398438 C 44.246094 17.519531 44.164062 17.609375 44.046875 17.660156 C 43.796875 17.796875 43.554688 17.789062 43.316406 17.628906 C 43.207031 17.550781 43.136719 17.445312 43.109375 17.3125 C 43.078125 17.179688 43.101562 17.054688 43.171875 16.941406 C 43.320312 16.625 43.378906 16.296875 43.34375 15.953125 Z M 82.363281 45.085938 C 84.984375 44.933594 86.796875 46.988281 86.964844 49.125 C 87.109375 50.957031 84.683594 53.324219 82.878906 53.15625 C 80.675781 52.953125 78.5625 51.582031 78.648438 48.78125 C 78.710938 46.828125 80.40625 45.085938 82.363281 45.085938 Z M 23.613281 49.417969 C 23.59375 46.792969 25.6875 44.871094 27.765625 44.871094 C 30.433594 44.871094 32.304688 46.589844 32.277344 49.574219 C 32.253906 51.921875 30.417969 53.691406 27.988281 53.652344 C 25.441406 53.609375 23.558594 52.054688 23.613281 49.417969 Z M 23.613281 49.417969 " fill-opacity="1" fill-rule="nonzero"/><g fill="#cc0200" fill-opacity="1"><g transform="translate(52.507127, 36.402743)"><g><path d="M 0.890625 0.046875 C 0.671875 0.046875 0.503906 -0.0078125 0.390625 -0.125 C 0.273438 -0.238281 0.21875 -0.394531 0.21875 -0.59375 C 0.21875 -0.71875 0.242188 -0.820312 0.296875 -0.90625 C 0.347656 -1 0.425781 -1.070312 0.53125 -1.125 C 0.644531 -1.1875 0.789062 -1.234375 0.96875 -1.265625 C 1.125 -1.285156 1.238281 -1.3125 1.3125 -1.34375 C 1.394531 -1.375 1.453125 -1.410156 1.484375 -1.453125 C 1.515625 -1.492188 1.53125 -1.546875 1.53125 -1.609375 C 1.53125 -1.703125 1.492188 -1.773438 1.421875 -1.828125 C 1.359375 -1.878906 1.253906 -1.90625 1.109375 -1.90625 C 0.960938 -1.90625 0.835938 -1.878906 0.734375 -1.828125 C 0.640625 -1.773438 0.550781 -1.695312 0.46875 -1.59375 L 0.4375 -1.59375 L 0.28125 -1.8125 C 0.375 -1.925781 0.488281 -2.015625 0.625 -2.078125 C 0.769531 -2.148438 0.929688 -2.1875 1.109375 -2.1875 C 1.359375 -2.1875 1.539062 -2.128906 1.65625 -2.015625 C 1.78125 -1.910156 1.84375 -1.757812 1.84375 -1.5625 L 1.84375 -0.421875 C 1.84375 -0.304688 1.894531 -0.25 2 -0.25 C 2.03125 -0.25 2.0625 -0.253906 2.09375 -0.265625 L 2.125 -0.25 L 2.15625 -0.03125 C 2.132812 -0.0195312 2.101562 -0.0078125 2.0625 0 C 2.019531 0.0078125 1.984375 0.015625 1.953125 0.015625 C 1.828125 0.015625 1.734375 -0.0078125 1.671875 -0.0625 C 1.617188 -0.113281 1.582031 -0.191406 1.5625 -0.296875 L 1.515625 -0.296875 C 1.460938 -0.179688 1.382812 -0.09375 1.28125 -0.03125 C 1.175781 0.0195312 1.046875 0.046875 0.890625 0.046875 Z M 0.953125 -0.21875 C 1.078125 -0.21875 1.179688 -0.242188 1.265625 -0.296875 C 1.347656 -0.347656 1.410156 -0.421875 1.453125 -0.515625 C 1.503906 -0.617188 1.53125 -0.738281 1.53125 -0.875 L 1.53125 -1.140625 L 1.5 -1.15625 C 1.445312 -1.125 1.382812 -1.09375 1.3125 -1.0625 C 1.25 -1.039062 1.15625 -1.019531 1.03125 -1 C 0.90625 -0.988281 0.804688 -0.960938 0.734375 -0.921875 C 0.660156 -0.890625 0.609375 -0.847656 0.578125 -0.796875 C 0.546875 -0.742188 0.53125 -0.675781 0.53125 -0.59375 C 0.53125 -0.46875 0.566406 -0.375 0.640625 -0.3125 C 0.722656 -0.25 0.828125 -0.21875 0.953125 -0.21875 Z M 0.953125 -0.21875 "/></g></g></g></svg>